<svg width="146" height="45" viewBox="0 0 109 43" fill="none" xmlns="http://www.w3.org/2000/svg">
<path d="M47.3925 30H50.8105V11.8468H47.3925V30ZM70.5081 26.3162L67.8244 24.2781C64.4444 29.5316 56.4818 27.3289 56.4818 20.9107C56.4818 17.5181 59.2161 14.6445 62.6341 14.6445C64.571 14.6445 66.4825 15.6572 67.5965 17.2396L70.179 15.1128C68.2801 12.695 65.7103 11.429 62.6341 11.429C57.292 11.429 53.0765 15.5559 53.0765 20.9107C53.0765 26.2909 57.2666 30.4178 62.6341 30.4178C65.7736 30.4178 68.6978 28.8733 70.5081 26.3162ZM75.9389 26.7846V15.0622H78.8631C82.2558 15.0622 85.0914 17.4168 85.0914 20.9234C85.0914 24.468 82.2811 26.7846 78.8631 26.7846H75.9389ZM72.5336 11.8468V30C74.6476 30 76.7491 29.9873 78.8631 29.9873C84.104 29.9873 88.5094 26.3415 88.5094 20.9234C88.5094 15.5053 84.0914 11.8468 78.8631 11.8468H72.5336ZM107.574 26.3162L104.89 24.2781C101.51 29.5316 93.5477 27.3289 93.5477 20.9107C93.5477 17.5181 96.2821 14.6445 99.7001 14.6445C101.637 14.6445 103.548 15.6572 104.662 17.2396L107.245 15.1128C105.346 12.695 102.776 11.429 99.7001 11.429C94.3579 11.429 90.1424 15.5559 90.1424 20.9107C90.1424 26.2909 94.3326 30.4178 99.7001 30.4178C102.84 30.4178 105.764 28.8733 107.574 26.3162Z" fill="white"/>
<g clip-path="url(#clip0)">
<path d="M33.9067 6.219L23.9251 1.05593C21.0649 -0.423128 17.693 -0.344205 14.9046 1.26639L4.7082 7.16023C1.80411 8.83903 0 11.9677 0 15.3272V26.7748C0 30.2036 1.86052 33.3653 4.85507 35.0246L15.3267 40.8279C16.7379 41.6092 18.3096 42 19.8812 42C21.5269 42 23.1723 41.5723 24.6303 40.7188L33.7774 35.3647C33.8785 35.3102 33.9767 35.2526 34.0701 35.1932L34.3375 35.0374C37.2135 33.3517 39 30.2329 39 26.8956V14.5964C39 11.0537 37.0481 7.84421 33.9067 6.219ZM3.40399 15.3272C3.40399 13.1837 4.55552 11.1862 6.40923 10.1144L16.6066 4.22063C17.5383 3.68181 18.5712 3.4119 19.6069 3.4119C20.5495 3.4119 21.4939 3.636 22.3642 4.08615L26.2196 6.08064C26.1076 6.13423 25.9968 6.18977 25.8859 6.25018C25.3073 6.5649 23.5469 7.52171 13.7716 17.1668C9.11492 21.7609 4.80254 26.1951 4.57593 26.4279C4.43492 26.5703 3.93501 27.1042 3.51875 27.9431C3.44387 27.5621 3.40399 27.1714 3.40399 26.7748V15.3272ZM19.3755 25.1584L15.6408 21.4168C15.4415 21.2171 15.4415 20.88 15.6408 20.6803L19.3755 16.9388C19.4746 16.8384 19.609 16.7887 19.7431 16.7887C19.8773 16.7887 20.0117 16.8384 20.1108 16.9388L23.8454 20.6803C24.0449 20.88 24.0449 21.2171 23.8454 21.4168L20.1108 25.1584C19.9115 25.3581 19.5748 25.3581 19.3755 25.1584ZM22.9128 37.7732C21.094 38.8382 18.8182 38.8646 16.9752 37.8435L6.98402 32.3063C6.38395 31.4848 6.18456 30.7151 6.37908 29.9601C6.53664 29.3471 6.90621 28.9213 6.97527 28.8463L7.00735 28.8131C8.64516 27.1275 10.5689 25.1711 12.5753 23.16C15.0554 25.7674 20.6155 31.5735 22.8389 33.5709C24.0195 34.6311 25.3772 35.2545 26.59 35.6209L22.9128 37.7732ZM35.596 26.8956C35.596 29.0256 34.4551 31.0172 32.6199 32.0919L32.2873 32.2867C32.2864 32.2877 32.2855 32.2886 32.2844 32.2896L32.0636 32.4193C31.6309 32.6141 30.6962 32.8294 29.3248 32.7008C27.6501 32.5431 26.1145 31.9359 25.1108 31.0337C24.3871 30.3838 23.2638 29.2798 22.0005 28.0065C22.1824 27.8779 22.3565 27.7335 22.5189 27.5709L26.2535 23.8294C27.7833 22.2967 27.7833 19.8024 26.2535 18.2697L22.5189 14.5283C22.3321 14.3412 22.1307 14.1775 21.9187 14.0362C24.5612 11.5526 26.6581 9.71205 27.5101 9.24825C29.9921 7.8978 33.1772 9.77439 33.2093 9.79389C34.7022 10.9183 35.5969 12.6819 35.5969 14.5974V26.8956H35.596Z" fill="white"/>
</g>
<defs>
<clipPath id="clip0">
<rect width="39" height="42" fill="white"/>
</clipPath>
</defs>
</svg>

