<svg width="28" height="28" viewBox="0 0 28 28" fill="none" xmlns="http://www.w3.org/2000/svg">
<path d="M16.3337 2.33331V6.99998C16.3337 7.61882 16.5795 8.21231 17.0171 8.6499C17.4547 9.08748 18.0482 9.33331 18.667 9.33331H23.3337M11.667 10.5H9.33366M18.667 15.1666H9.33366M18.667 19.8333H9.33366M17.5003 2.33331H7.00033C6.38149 2.33331 5.78799 2.57915 5.35041 3.01673C4.91282 3.45432 4.66699 4.04781 4.66699 4.66665V23.3333C4.66699 23.9522 4.91282 24.5456 5.35041 24.9832C5.78799 25.4208 6.38149 25.6666 7.00033 25.6666H21.0003C21.6192 25.6666 22.2127 25.4208 22.6502 24.9832C23.0878 24.5456 23.3337 23.9522 23.3337 23.3333V8.16665L17.5003 2.33331Z" stroke="white" stroke-linecap="round" stroke-linejoin="round"/>
</svg>
