<svg width="28" height="28" viewBox="0 0 28 28" fill="none" xmlns="http://www.w3.org/2000/svg">
<path d="M14 24.5C12.5502 24.5 11.1868 24.2239 9.90967 23.6717C8.63256 23.1187 7.52151 22.3681 6.57651 21.42C5.63151 20.4719 4.88212 19.3597 4.32834 18.0834C3.77456 16.807 3.49845 15.4459 3.50001 14C3.50001 11.3361 4.37267 9.01057 6.11801 7.02335C7.86334 5.03613 10.1018 3.88113 12.8333 3.55835V4.99335C10.5016 5.31146 8.60223 6.33074 7.13534 8.05118C5.66923 9.77241 4.93617 11.7554 4.93617 14C4.93617 16.5099 5.81934 18.648 7.58567 20.4144C9.35201 22.1807 11.4901 23.0639 14 23.0639C15.4622 23.0639 16.835 22.7395 18.1183 22.0909C19.4009 21.4414 20.4361 20.5901 21.224 19.537L22.463 20.3C21.4573 21.6238 20.2253 22.6547 18.767 23.3929C17.3087 24.131 15.7197 24.5 14 24.5ZM23.6437 18.1417L22.4047 17.4242C22.6092 16.9723 22.7702 16.4496 22.8877 15.8562C23.0051 15.2627 23.0642 14.644 23.065 14C23.065 11.7102 22.3168 9.70863 20.8203 7.99518C19.3239 6.28174 17.4393 5.28152 15.1667 4.99452V3.55835C17.7932 3.80491 20.0056 4.93346 21.8038 6.94402C23.6013 8.95457 24.5 11.3066 24.5 14C24.5 14.7661 24.43 15.4992 24.29 16.1992C24.15 16.8992 23.9346 17.5467 23.6437 18.1417Z" fill="white"/>
</svg>
