<svg width="28" height="28" viewBox="0 0 28 28" fill="none" xmlns="http://www.w3.org/2000/svg">
<path d="M18.6673 24.5V22.1667C18.6673 20.929 18.1757 19.742 17.3005 18.8668C16.4253 17.9917 15.2383 17.5 14.0007 17.5H7.00065C5.76297 17.5 4.57599 17.9917 3.70082 18.8668C2.82565 19.742 2.33398 20.929 2.33398 22.1667V24.5M25.6673 24.4999V22.1665C25.6665 21.1325 25.3224 20.1281 24.6889 19.3109C24.0554 18.4937 23.1685 17.91 22.1673 17.6515M18.6673 3.65153C19.6711 3.90855 20.5609 4.49235 21.1962 5.31089C21.8316 6.12944 22.1765 7.13616 22.1765 8.17236C22.1765 9.20856 21.8316 10.2153 21.1962 11.0338C20.5609 11.8524 19.6711 12.4362 18.6673 12.6932M15.1673 8.16667C15.1673 10.744 13.078 12.8333 10.5007 12.8333C7.92332 12.8333 5.83398 10.744 5.83398 8.16667C5.83398 5.58934 7.92332 3.5 10.5007 3.5C13.078 3.5 15.1673 5.58934 15.1673 8.16667Z" stroke="white" stroke-width="0.833333" stroke-linecap="round" stroke-linejoin="round"/>
</svg>
