<svg width="28" height="27" viewBox="0 0 28 27" fill="none" xmlns="http://www.w3.org/2000/svg">
<path d="M4.15058 22.0276H10.3051C10.47 22.6075 10.6875 22.7164 10.9575 23.2432H4.15058C3.04978 23.2432 1.99406 22.806 1.21568 22.0276C0.437292 21.2492 0 20.1935 0 19.0927V4.15058C0 3.04978 0.437292 1.99406 1.21568 1.21568C1.99406 0.437292 3.04978 0 4.15058 0H19.0927C20.1935 0 21.2492 0.437292 22.0276 1.21568C22.806 1.99406 23.2432 3.04978 23.2432 4.15058V10.9008C22.7125 10.6296 22.6009 10.9543 22.0276 10.7915V7.47139V4.15058C22.0276 3.4901 21.5743 2.60196 21.1073 2.13493C20.6402 1.6679 19.7531 1.21568 19.0927 1.21568H11.6202H4.15058C3.4901 1.21568 2.60022 1.6679 2.13319 2.13493C1.66616 2.60196 1.21568 3.4901 1.21568 4.15058V19.0927C1.21568 19.7531 1.66616 20.642 2.13319 21.109C2.60022 21.576 3.4901 22.0276 4.15058 22.0276Z" fill="white"/>
<path d="M17.824 13.1043L18.3339 11.788C18.4199 11.5651 18.5712 11.3734 18.768 11.238C18.9648 11.1026 19.1979 11.0298 19.4367 11.0291H20.4092C20.6481 11.0298 20.8812 11.1026 21.0779 11.238C21.2747 11.3734 21.426 11.5651 21.512 11.788L22.022 13.1043L23.7534 14.1005L25.1527 13.887C25.3857 13.8554 25.6228 13.8938 25.834 13.9972C26.0452 14.1007 26.2208 14.2646 26.3386 14.4681L26.8129 15.2982C26.9345 15.505 26.9905 15.7437 26.9735 15.983C26.9566 16.2222 26.8675 16.4507 26.7181 16.6383L25.8524 17.7411V19.7334L26.7418 20.8363C26.8912 21.0238 26.9803 21.2523 26.9973 21.4916C27.0142 21.7308 26.9582 21.9696 26.8366 22.1763L26.3623 23.0064C26.2445 23.21 26.0689 23.3739 25.8577 23.4773C25.6466 23.5808 25.4094 23.6191 25.1764 23.5875L23.7771 23.3741L22.0457 24.3702L21.5358 25.6865C21.4498 25.9094 21.2985 26.1011 21.1017 26.2365C20.9049 26.3719 20.6718 26.4448 20.4329 26.4455H19.4367C19.1979 26.4448 18.9648 26.3719 18.768 26.2365C18.5712 26.1011 18.4199 25.9094 18.3339 25.6865L17.824 24.3702L16.0926 23.3741L14.6932 23.5875C14.4602 23.6191 14.2231 23.5808 14.0119 23.4773C13.8008 23.3739 13.6251 23.21 13.5073 23.0064L13.033 22.1763C12.9114 21.9696 12.8554 21.7308 12.8724 21.4916C12.8893 21.2523 12.9784 21.0238 13.1279 20.8363L13.9936 19.7334V17.7411L13.1042 16.6383C12.9547 16.4507 12.8656 16.2222 12.8487 15.983C12.8317 15.7437 12.8877 15.505 13.0093 15.2982L13.4836 14.4681C13.6014 14.2646 13.777 14.1007 13.9882 13.9972C14.1994 13.8938 14.4365 13.8554 14.6695 13.887L16.0689 14.1005L17.824 13.1043ZM17.5512 18.7373C17.5512 19.3663 17.8011 19.9696 18.2459 20.4144C18.6907 20.8591 19.2939 21.109 19.923 21.109C20.552 21.109 21.1553 20.8591 21.6 20.4144C22.0448 19.9696 22.2947 19.3663 22.2947 18.7373C22.2947 18.1082 22.0448 17.505 21.6 17.0602C21.1553 16.6154 20.552 16.3655 19.923 16.3655C19.2939 16.3655 18.6907 16.6154 18.2459 17.0602C17.8011 17.505 17.5512 18.1082 17.5512 18.7373Z" stroke="white" stroke-linecap="round" stroke-linejoin="round"/>
<path d="M12.2527 13.0845H8.26027C7.55436 13.0845 6.87736 13.365 6.37821 13.8641C5.87905 14.3633 5.59863 15.0403 5.59863 15.7462V17.077M14.9144 5.18603C15.4869 5.33263 15.9944 5.6656 16.3567 6.13245C16.7191 6.59931 16.9158 7.1735 16.9158 7.7645C16.9158 8.3555 16.7191 8.92969 16.3567 9.39654C15.9944 9.8634 15.4869 10.1964 14.9144 10.343M12.9181 7.76125C12.9181 9.23123 11.7265 10.4229 10.2565 10.4229C8.78652 10.4229 7.59486 9.23123 7.59486 7.76125C7.59486 6.29127 8.78652 5.09961 10.2565 5.09961C11.7265 5.09961 12.9181 6.29127 12.9181 7.76125Z" stroke="white" stroke-linecap="round" stroke-linejoin="round"/>
</svg>
