<svg width="25" height="25" viewBox="0 0 25 25" fill="none" xmlns="http://www.w3.org/2000/svg">
<path d="M2.9596 15.7069H7.3481C7.4657 16.1205 7.62078 16.1981 7.81335 16.5738H2.9596C2.17467 16.5738 1.42188 16.262 0.866847 15.7069C0.311814 15.1519 0 14.3991 0 13.6142V2.9596C0 2.17467 0.311814 1.42188 0.866847 0.866847C1.42188 0.311814 2.17467 0 2.9596 0H13.6142C14.3991 0 15.1519 0.311814 15.7069 0.866847C16.262 1.42188 16.5738 2.17467 16.5738 2.9596V7.77288C16.1953 7.57953 16.1158 7.81104 15.7069 7.69497V5.32753V2.9596C15.7069 2.48864 15.3837 1.85535 15.0507 1.52233C14.7177 1.18931 14.0851 0.866847 13.6142 0.866847H8.2859H2.9596C2.48864 0.866847 1.85411 1.18931 1.52109 1.52233C1.18807 1.85535 0.866847 2.48864 0.866847 2.9596V13.6142C0.866847 14.0851 1.18807 14.7189 1.52109 15.0519C1.85411 15.385 2.48864 15.7069 2.9596 15.7069Z" fill="white"/>
<path d="M12.7087 9.34406L13.0723 8.40544C13.1336 8.24652 13.2415 8.10983 13.3819 8.01326C13.5222 7.9167 13.6884 7.86476 13.8587 7.86426H14.5521C14.7225 7.86476 14.8887 7.9167 15.029 8.01326C15.1693 8.10983 15.2772 8.24652 15.3385 8.40544L15.7021 9.34406L16.9367 10.0544L17.9345 9.90216C18.1007 9.8796 18.2698 9.90695 18.4203 9.98073C18.5709 10.0545 18.6961 10.1714 18.7801 10.3165L19.1184 10.9084C19.205 11.0558 19.245 11.2261 19.2329 11.3967C19.2208 11.5673 19.1573 11.7302 19.0507 11.8639L18.4334 12.6504V14.071L19.0676 14.8574C19.1742 14.9911 19.2377 15.154 19.2498 15.3246C19.2619 15.4952 19.222 15.6655 19.1353 15.8129L18.797 16.4048C18.7131 16.5499 18.5878 16.6668 18.4373 16.7406C18.2867 16.8144 18.1176 16.8417 17.9514 16.8192L16.9536 16.667L15.7191 17.3773L15.3554 18.3159C15.2941 18.4748 15.1862 18.6115 15.0459 18.7081C14.9056 18.8046 14.7394 18.8566 14.569 18.8571H13.8587C13.6884 18.8566 13.5222 18.8046 13.3819 18.7081C13.2415 18.6115 13.1336 18.4748 13.0723 18.3159L12.7087 17.3773L11.4741 16.667L10.4763 16.8192C10.3102 16.8417 10.1411 16.8144 9.99052 16.7406C9.83995 16.6668 9.71472 16.5499 9.63073 16.4048L9.29249 15.8129C9.20581 15.6655 9.16588 15.4952 9.17796 15.3246C9.19004 15.154 9.25356 14.9911 9.36014 14.8574L9.97742 14.071V12.6504L9.34322 11.8639C9.23664 11.7302 9.17312 11.5673 9.16105 11.3967C9.14897 11.2261 9.1889 11.0558 9.27558 10.9084L9.61382 10.3165C9.6978 10.1714 9.82304 10.0545 9.9736 9.98073C10.1242 9.90695 10.2933 9.8796 10.4594 9.90216L11.4572 10.0544L12.7087 9.34406ZM12.5142 13.3607C12.5142 13.8092 12.6924 14.2394 13.0096 14.5565C13.3267 14.8737 13.7569 15.0519 14.2054 15.0519C14.654 15.0519 15.0841 14.8737 15.4013 14.5565C15.7184 14.2394 15.8966 13.8092 15.8966 13.3607C15.8966 12.9121 15.7184 12.482 15.4013 12.1648C15.0841 11.8476 14.654 11.6695 14.2054 11.6695C13.7569 11.6695 13.3267 11.8476 13.0096 12.1648C12.6924 12.482 12.5142 12.9121 12.5142 13.3607Z" stroke="white" stroke-width="0.713058" stroke-linecap="round" stroke-linejoin="round"/>
<path d="M8.73792 9.32994H5.89107C5.38771 9.32994 4.90497 9.5299 4.54905 9.88583C4.19312 10.2418 3.99316 10.7245 3.99316 11.2278V12.1768M10.6358 3.69786C11.0441 3.80238 11.4059 4.03981 11.6643 4.37271C11.9227 4.70561 12.063 5.11504 12.063 5.53645C12.063 5.95787 11.9227 6.3673 11.6643 6.70019C11.4059 7.03309 11.0441 7.27052 10.6358 7.37505M9.2124 5.53413C9.2124 6.58232 8.36268 7.43204 7.3145 7.43204C6.26631 7.43204 5.41659 6.58232 5.41659 5.53413C5.41659 4.48595 6.26631 3.63623 7.3145 3.63623C8.36268 3.63623 9.2124 4.48595 9.2124 5.53413Z" stroke="white" stroke-width="0.713058" stroke-linecap="round" stroke-linejoin="round"/>
<rect x="5.14258" y="5.14258" width="17.1429" height="17.1429" rx="3.42857" fill="#3D3E3F"/>
<path d="M8.10316 20.85H12.4917C12.6093 21.2635 12.7643 21.3412 12.9569 21.7168H8.10316C7.31822 21.7168 6.56544 21.405 6.0104 20.85C5.45537 20.295 5.14355 19.5422 5.14355 18.7572V8.10267C5.14355 7.31773 5.45537 6.56495 6.0104 6.00991C6.56544 5.45488 7.31822 5.14307 8.10316 5.14307H18.7577C19.5427 5.14307 20.2954 5.45488 20.8505 6.00991C21.4055 6.56495 21.7173 7.31773 21.7173 8.10267V12.9159C21.3388 12.7226 21.2593 12.9541 20.8505 12.838V10.4706V8.10267C20.8505 7.63171 20.5273 6.99842 20.1943 6.6654C19.8612 6.33238 19.2287 6.00991 18.7577 6.00991H13.4295H8.10316C7.6322 6.00991 6.99766 6.33238 6.66465 6.6654C6.33163 6.99842 6.0104 7.63171 6.0104 8.10267V18.7572C6.0104 19.2282 6.33163 19.862 6.66465 20.195C6.99766 20.528 7.6322 20.85 8.10316 20.85Z" fill="white"/>
<path d="M17.8523 14.4871L18.2159 13.5485C18.2772 13.3896 18.3851 13.2529 18.5254 13.1563C18.6657 13.0598 18.8319 13.0078 19.0023 13.0073H19.6957C19.866 13.0078 20.0322 13.0598 20.1726 13.1563C20.3129 13.2529 20.4208 13.3896 20.4821 13.5485L20.8457 14.4871L22.0803 15.1974L23.0781 15.0452C23.2442 15.0227 23.4133 15.05 23.5639 15.1238C23.7145 15.1976 23.8397 15.3144 23.9237 15.4596L24.2619 16.0515C24.3486 16.1989 24.3885 16.3692 24.3765 16.5398C24.3644 16.7103 24.3009 16.8733 24.1943 17.007L23.577 17.7934V19.214L24.2112 20.0004C24.3178 20.1342 24.3813 20.2971 24.3934 20.4677C24.4054 20.6383 24.3655 20.8085 24.2788 20.956L23.9406 21.5479C23.8566 21.693 23.7314 21.8099 23.5808 21.8837C23.4302 21.9574 23.2611 21.9848 23.095 21.9622L22.0972 21.81L20.8626 22.5203L20.499 23.4589C20.4377 23.6179 20.3298 23.7546 20.1895 23.8511C20.0491 23.9477 19.8829 23.9996 19.7126 24.0001H19.0023C18.8319 23.9996 18.6657 23.9477 18.5254 23.8511C18.3851 23.7546 18.2772 23.6179 18.2159 23.4589L17.8523 22.5203L16.6177 21.81L15.6199 21.9622C15.4537 21.9848 15.2846 21.9574 15.1341 21.8837C14.9835 21.8099 14.8583 21.693 14.7743 21.5479L14.436 20.956C14.3494 20.8085 14.3094 20.6383 14.3215 20.4677C14.3336 20.2971 14.3971 20.1342 14.5037 20.0004L15.121 19.214V17.7934L14.4868 17.007C14.3802 16.8733 14.3167 16.7103 14.3046 16.5398C14.2925 16.3692 14.3325 16.1989 14.4191 16.0515L14.7574 15.4596C14.8414 15.3144 14.9666 15.1976 15.1172 15.1238C15.2677 15.05 15.4368 15.0227 15.603 15.0452L16.6008 15.1974L17.8523 14.4871ZM17.6578 18.5037C17.6578 18.9523 17.836 19.3824 18.1531 19.6996C18.4703 20.0167 18.9004 20.1949 19.349 20.1949C19.7975 20.1949 20.2277 20.0167 20.5448 19.6996C20.862 19.3824 21.0402 18.9523 21.0402 18.5037C21.0402 18.0552 20.862 17.625 20.5448 17.3079C20.2277 16.9907 19.7975 16.8125 19.349 16.8125C18.9004 16.8125 18.4703 16.9907 18.1531 17.3079C17.836 17.625 17.6578 18.0552 17.6578 18.5037Z" fill="#3D3E3F" stroke="white" stroke-width="0.713058" stroke-linecap="round" stroke-linejoin="round"/>
<path d="M13.8815 14.473H11.0346C10.5313 14.473 10.0485 14.673 9.6926 15.0289C9.33668 15.3848 9.13672 15.8676 9.13672 16.3709V17.3199M15.7794 8.84092C16.1876 8.94545 16.5495 9.18288 16.8079 9.51578C17.0663 9.84867 17.2065 10.2581 17.2065 10.6795C17.2065 11.1009 17.0663 11.5104 16.8079 11.8433C16.5495 12.1762 16.1876 12.4136 15.7794 12.5181M14.356 10.6772C14.356 11.7254 13.5062 12.5751 12.4581 12.5751C11.4099 12.5751 10.5601 11.7254 10.5601 10.6772C10.5601 9.62902 11.4099 8.7793 12.4581 8.7793C13.5062 8.7793 14.356 9.62902 14.356 10.6772Z" stroke="white" stroke-width="0.713058" stroke-linecap="round" stroke-linejoin="round"/>
</svg>
