<svg width="28" height="28" viewBox="0 0 28 28" fill="none" xmlns="http://www.w3.org/2000/svg">
<path d="M4.90024 17.6168C3.98932 16.7571 3.28836 15.6994 2.85156 14.5255C2.41476 13.3516 2.25383 12.093 2.38121 10.847C2.5086 9.60094 2.92088 8.4009 3.58618 7.33967C4.25149 6.27845 5.15197 5.38447 6.218 4.72689C7.28402 4.06931 8.48702 3.66574 9.73394 3.5474C10.9809 3.42906 12.2383 3.59912 13.409 4.04442C14.5797 4.48973 15.6323 5.19835 16.4853 6.11548C17.3384 7.0326 17.9691 8.13366 18.3286 9.33348H20.4169C21.5298 9.34848 22.6091 9.71676 23.499 10.3851C24.3889 11.0535 25.0434 11.9874 25.3679 13.052C25.6925 14.1165 25.6704 15.2567 25.3047 16.3079C24.939 17.3591 24.2488 18.2668 23.3336 18.9001M18.3168 21.4668L17.2668 21.1168M10.7335 18.5502L9.68351 18.2002M12.3669 24.1501L12.7169 23.1001M15.2836 16.5668L15.6336 15.5168M15.8667 24.15L15.4001 22.9833M12.6 16.6834L12.1333 15.5168M9.68351 21.7L10.8502 21.2333M17.1501 18.4333L18.3167 17.9666M17.5001 19.8334C17.5001 21.7664 15.9331 23.3334 14.0001 23.3334C12.0671 23.3334 10.5001 21.7664 10.5001 19.8334C10.5001 17.9004 12.0671 16.3334 14.0001 16.3334C15.9331 16.3334 17.5001 17.9004 17.5001 19.8334Z" stroke="white" stroke-linecap="round" stroke-linejoin="round"/>
</svg>
