<svg width="28" height="28" viewBox="0 0 28 28" fill="none" xmlns="http://www.w3.org/2000/svg">
<path d="M17.5 24.5V15.1666C17.5 14.8572 17.3771 14.5605 17.1583 14.3417C16.9395 14.1229 16.6428 14 16.3333 14H11.6667C11.3572 14 11.0605 14.1229 10.8417 14.3417C10.6229 14.5605 10.5 14.8572 10.5 15.1666V24.5M3.5 11.6666C3.49992 11.3272 3.57389 10.9918 3.71675 10.6839C3.85962 10.376 4.06793 10.103 4.32717 9.88392L12.4938 2.88509C12.915 2.52915 13.4486 2.33386 14 2.33386C14.5514 2.33386 15.085 2.52915 15.5062 2.88509L23.6728 9.88392C23.9321 10.103 24.1404 10.376 24.2832 10.6839C24.4261 10.9918 24.5001 11.3272 24.5 11.6666V22.1666C24.5 22.7854 24.2542 23.3789 23.8166 23.8165C23.379 24.2541 22.7855 24.4999 22.1667 24.4999H5.83333C5.21449 24.4999 4.621 24.2541 4.18342 23.8165C3.74583 23.3789 3.5 22.7854 3.5 22.1666V11.6666Z" stroke="white" stroke-linecap="round" stroke-linejoin="round"/>
</svg>
