<svg width="25" height="25" viewBox="0 0 25 25" fill="none" xmlns="http://www.w3.org/2000/svg">
<path d="M2.9596 15.7069H7.3481C7.4657 16.1205 7.62078 16.1981 7.81335 16.5738H2.9596C2.17467 16.5738 1.42188 16.262 0.866847 15.7069C0.311814 15.1519 0 14.3991 0 13.6142V2.9596C0 2.17467 0.311814 1.42188 0.866847 0.866847C1.42188 0.311814 2.17467 0 2.9596 0H13.6142C14.3991 0 15.1519 0.311814 15.7069 0.866847C16.262 1.42188 16.5738 2.17467 16.5738 2.9596V7.77288C16.1953 7.57953 16.1158 7.81104 15.7069 7.69497V5.32753V2.9596C15.7069 2.48864 15.3837 1.85535 15.0507 1.52233C14.7177 1.18931 14.0851 0.866847 13.6142 0.866847H8.2859H2.9596C2.48864 0.866847 1.85411 1.18931 1.52109 1.52233C1.18807 1.85535 0.866847 2.48864 0.866847 2.9596V13.6142C0.866847 14.0851 1.18807 14.7189 1.52109 15.0519C1.85411 15.385 2.48864 15.7069 2.9596 15.7069Z" fill="white"/>
<path d="M12.709 9.34418L13.0726 8.40556C13.1339 8.24665 13.2418 8.10995 13.3821 8.01339C13.5224 7.91682 13.6886 7.86488 13.859 7.86438H14.5524C14.7227 7.86488 14.8889 7.91682 15.0292 8.01339C15.1696 8.10995 15.2775 8.24665 15.3388 8.40556L15.7024 9.34418L16.937 10.0545L17.9348 9.90228C18.1009 9.87973 18.27 9.90708 18.4206 9.98085C18.5711 10.0546 18.6964 10.1715 18.7804 10.3166L19.1186 10.9085C19.2053 11.056 19.2452 11.2262 19.2331 11.3968C19.2211 11.5674 19.1575 11.7303 19.051 11.8641L18.4337 12.6505V14.0711L19.0679 14.8575C19.1745 14.9912 19.238 15.1542 19.2501 15.3248C19.2621 15.4954 19.2222 15.6656 19.1355 15.813L18.7973 16.4049C18.7133 16.5501 18.5881 16.6669 18.4375 16.7407C18.2869 16.8145 18.1178 16.8418 17.9517 16.8193L16.9539 16.6671L15.7193 17.3774L15.3557 18.316C15.2944 18.4749 15.1865 18.6116 15.0462 18.7082C14.9058 18.8047 14.7396 18.8567 14.5693 18.8572H13.859C13.6886 18.8567 13.5224 18.8047 13.3821 18.7082C13.2418 18.6116 13.1339 18.4749 13.0726 18.316L12.709 17.3774L11.4744 16.6671L10.4766 16.8193C10.3104 16.8418 10.1413 16.8145 9.99076 16.7407C9.84019 16.6669 9.71496 16.5501 9.63097 16.4049L9.29273 15.813C9.20606 15.6656 9.16613 15.4954 9.1782 15.3248C9.19028 15.1542 9.2538 14.9912 9.36038 14.8575L9.97767 14.0711V12.6505L9.34347 11.8641C9.23689 11.7303 9.17337 11.5674 9.16129 11.3968C9.14921 11.2262 9.18915 11.056 9.27582 10.9085L9.61406 10.3166C9.69805 10.1715 9.82328 10.0546 9.97385 9.98085C10.1244 9.90708 10.2935 9.87973 10.4597 9.90228L11.4575 10.0545L12.709 9.34418ZM12.5145 13.3608C12.5145 13.8093 12.6927 14.2395 13.0098 14.5566C13.327 14.8738 13.7571 15.052 14.2057 15.052C14.6542 15.052 15.0844 14.8738 15.4015 14.5566C15.7187 14.2395 15.8969 13.8093 15.8969 13.3608C15.8969 12.9122 15.7187 12.4821 15.4015 12.1649C15.0844 11.8478 14.6542 11.6696 14.2057 11.6696C13.7571 11.6696 13.327 11.8478 13.0098 12.1649C12.6927 12.4821 12.5145 12.9122 12.5145 13.3608Z" stroke="white" stroke-width="0.713058" stroke-linecap="round" stroke-linejoin="round"/>
<path d="M8.73792 9.33006H5.89107C5.38771 9.33006 4.90497 9.53002 4.54905 9.88595C4.19312 10.2419 3.99316 10.7246 3.99316 11.228V12.1769M10.6358 3.69798C11.0441 3.80251 11.4059 4.03993 11.6643 4.37283C11.9227 4.70573 12.063 5.11516 12.063 5.53657C12.063 5.95799 11.9227 6.36742 11.6643 6.70032C11.4059 7.03321 11.0441 7.27064 10.6358 7.37517M9.2124 5.53426C9.2124 6.58244 8.36268 7.43216 7.3145 7.43216C6.26631 7.43216 5.41659 6.58244 5.41659 5.53426C5.41659 4.48607 6.26631 3.63635 7.3145 3.63635C8.36268 3.63635 9.2124 4.48607 9.2124 5.53426Z" stroke="white" stroke-width="0.713058" stroke-linecap="round" stroke-linejoin="round"/>
<rect x="5.14258" y="5.14282" width="17.1429" height="17.1429" rx="3.42857" fill="#1B1C1D"/>
<path d="M8.10316 20.8499H12.4917C12.6093 21.2634 12.7643 21.341 12.9569 21.7167H8.10316C7.31822 21.7167 6.56544 21.4049 6.0104 20.8499C5.45537 20.2948 5.14355 19.5421 5.14355 18.7571V8.10255C5.14355 7.31761 5.45537 6.56482 6.0104 6.00979C6.56544 5.45476 7.31822 5.14294 8.10316 5.14294H18.7577C19.5427 5.14294 20.2954 5.45476 20.8505 6.00979C21.4055 6.56482 21.7173 7.31761 21.7173 8.10255V12.9158C21.3388 12.7225 21.2593 12.954 20.8505 12.8379V10.4705V8.10255C20.8505 7.63159 20.5273 6.99829 20.1943 6.66527C19.8612 6.33225 19.2287 6.00979 18.7577 6.00979H13.4295H8.10316C7.6322 6.00979 6.99766 6.33225 6.66465 6.66527C6.33163 6.99829 6.0104 7.63159 6.0104 8.10255V18.7571C6.0104 19.2281 6.33163 19.8619 6.66465 20.1949C6.99766 20.5279 7.6322 20.8499 8.10316 20.8499Z" fill="white"/>
<path d="M17.8525 14.4871L18.2161 13.5485C18.2774 13.3896 18.3853 13.2529 18.5257 13.1563C18.666 13.0598 18.8322 13.0078 19.0025 13.0073H19.6959C19.8663 13.0078 20.0325 13.0598 20.1728 13.1563C20.3131 13.2529 20.421 13.3896 20.4823 13.5485L20.8459 14.4871L22.0805 15.1974L23.0783 15.0452C23.2445 15.0227 23.4136 15.05 23.5641 15.1238C23.7147 15.1976 23.8399 15.3144 23.9239 15.4596L24.2622 16.0515C24.3488 16.1989 24.3888 16.3692 24.3767 16.5398C24.3646 16.7103 24.3011 16.8733 24.1945 17.007L23.5772 17.7934V19.214L24.2114 20.0004C24.318 20.1342 24.3815 20.2971 24.3936 20.4677C24.4057 20.6383 24.3658 20.8085 24.2791 20.956L23.9408 21.5479C23.8569 21.693 23.7316 21.8099 23.5811 21.8837C23.4305 21.9574 23.2614 21.9848 23.0952 21.9622L22.0974 21.81L20.8629 22.5203L20.4992 23.4589C20.4379 23.6179 20.33 23.7546 20.1897 23.8511C20.0494 23.9477 19.8832 23.9996 19.7128 24.0001H19.0025C18.8322 23.9996 18.666 23.9477 18.5257 23.8511C18.3853 23.7546 18.2774 23.6179 18.2161 23.4589L17.8525 22.5203L16.6179 21.81L15.6201 21.9622C15.454 21.9848 15.2849 21.9574 15.1343 21.8837C14.9837 21.8099 14.8585 21.693 14.7745 21.5479L14.4363 20.956C14.3496 20.8085 14.3097 20.6383 14.3218 20.4677C14.3338 20.2971 14.3974 20.1342 14.5039 20.0004L15.1212 19.214V17.7934L14.487 17.007C14.3804 16.8733 14.3169 16.7103 14.3048 16.5398C14.2928 16.3692 14.3327 16.1989 14.4194 16.0515L14.7576 15.4596C14.8416 15.3144 14.9668 15.1976 15.1174 15.1238C15.268 15.05 15.4371 15.0227 15.6032 15.0452L16.601 15.1974L17.8525 14.4871ZM17.658 18.5037C17.658 18.9523 17.8362 19.3824 18.1534 19.6996C18.4705 20.0167 18.9007 20.1949 19.3492 20.1949C19.7978 20.1949 20.2279 20.0167 20.5451 19.6996C20.8622 19.3824 21.0404 18.9523 21.0404 18.5037C21.0404 18.0552 20.8622 17.625 20.5451 17.3079C20.2279 16.9907 19.7978 16.8125 19.3492 16.8125C18.9007 16.8125 18.4705 16.9907 18.1534 17.3079C17.8362 17.625 17.658 18.0552 17.658 18.5037Z" stroke="white" stroke-width="0.713058" stroke-linecap="round" stroke-linejoin="round"/>
<path d="M13.8815 14.473H11.0346C10.5313 14.473 10.0485 14.673 9.6926 15.0289C9.33668 15.3848 9.13672 15.8676 9.13672 16.3709V17.3199M15.7794 8.84092C16.1876 8.94545 16.5495 9.18288 16.8079 9.51578C17.0663 9.84867 17.2065 10.2581 17.2065 10.6795C17.2065 11.1009 17.0663 11.5104 16.8079 11.8433C16.5495 12.1762 16.1876 12.4136 15.7794 12.5181M14.356 10.6772C14.356 11.7254 13.5062 12.5751 12.4581 12.5751C11.4099 12.5751 10.5601 11.7254 10.5601 10.6772C10.5601 9.62902 11.4099 8.7793 12.4581 8.7793C13.5062 8.7793 14.356 9.62902 14.356 10.6772Z" stroke="white" stroke-width="0.713058" stroke-linecap="round" stroke-linejoin="round"/>
</svg>
