<svg width="28" height="28" viewBox="0 0 28 28" fill="none" xmlns="http://www.w3.org/2000/svg">
<path d="M9.33301 23.3333C8.73334 24.1465 8.48951 24.43 7.99718 24.4918C7.50484 24.5537 7.16301 24.2702 6.48051 23.7067C3.94417 21.6067 2.33301 18.4625 2.33301 14.9508C2.33301 8.6275 7.55618 3.5 13.9997 3.5C20.4432 3.5 25.6663 8.62633 25.6663 14.9508C25.6663 18.4625 24.0552 21.6055 21.5188 23.7067C20.8363 24.2713 20.4957 24.5537 20.0022 24.4918C19.5098 24.43 19.266 24.1465 18.6663 23.3333M15.7497 12.25L20.9997 5.83333" stroke="white" stroke-linecap="round" stroke-linejoin="round"/>
<path d="M14 15.75C14.9665 15.75 15.75 14.9665 15.75 14C15.75 13.0335 14.9665 12.25 14 12.25C13.0335 12.25 12.25 13.0335 12.25 14C12.25 14.9665 13.0335 15.75 14 15.75Z" stroke="white" stroke-linecap="round" stroke-linejoin="round"/>
</svg>
