<svg width="34" height="34" viewBox="0 0 34 34" fill="none" xmlns="http://www.w3.org/2000/svg">
<path d="M4.95898 7.08341C4.95898 6.14411 5.33212 5.24327 5.99631 4.57908C6.66051 3.91489 7.56134 3.54175 8.50065 3.54175H22.6673C23.6066 3.54175 24.5075 3.91489 25.1717 4.57908C25.8358 5.24327 26.209 6.14411 26.209 7.08341V14.8751C26.209 15.0629 26.1344 15.2431 26.0015 15.3759C25.8687 15.5088 25.6885 15.5834 25.5007 15.5834C25.3128 15.5834 25.1326 15.5088 24.9998 15.3759C24.8669 15.2431 24.7923 15.0629 24.7923 14.8751V7.08341C24.7923 6.51983 24.5684 5.97933 24.1699 5.58081C23.7714 5.1823 23.2309 4.95841 22.6673 4.95841H8.50065C7.93707 4.95841 7.39656 5.1823 6.99805 5.58081C6.59953 5.97933 6.37565 6.51983 6.37565 7.08341V27.4579C6.37566 27.5787 6.40655 27.6975 6.4654 27.803C6.52424 27.9085 6.60909 27.9971 6.71187 28.0606C6.81465 28.1241 6.93195 28.1602 7.05262 28.1655C7.17329 28.1709 7.29333 28.1453 7.40132 28.0912L8.81798 27.3828C9.17086 27.2066 9.56581 27.1322 9.95862 27.1677C10.3514 27.2032 10.7266 27.3474 11.0422 27.584L12.3257 28.5459C12.4483 28.6379 12.5974 28.6876 12.7507 28.6876C12.9039 28.6876 13.053 28.6379 13.1757 28.5459L14.3968 27.6293C14.7348 27.3759 15.1407 27.2289 15.5626 27.2072C15.9845 27.1855 16.4033 27.2901 16.7655 27.5075L17.7189 28.0798C17.8801 28.1764 17.9963 28.333 18.042 28.5153C18.0877 28.6975 18.0591 28.8905 17.9626 29.0517C17.866 29.2128 17.7094 29.3291 17.5271 29.3748C17.3449 29.4205 17.1519 29.3919 16.9907 29.2953L16.0359 28.723C15.9153 28.6505 15.7759 28.6155 15.6353 28.6226C15.4948 28.6297 15.3595 28.6784 15.2468 28.7627L14.0257 29.6792C13.6578 29.9551 13.2104 30.1042 12.7507 30.1042C12.2909 30.1042 11.8435 29.9551 11.4757 29.6792L10.1922 28.7159C10.0868 28.6374 9.96177 28.5898 9.83093 28.5783C9.70009 28.5668 9.56863 28.5919 9.45123 28.6507L8.03457 29.3591C7.71054 29.5212 7.35046 29.5977 6.98852 29.5814C6.62659 29.5651 6.27483 29.4566 5.96666 29.2661C5.65848 29.0756 5.40413 28.8095 5.22777 28.493C5.0514 28.1765 4.95888 27.8202 4.95898 27.4579V7.08341Z" fill="white"/>
<path d="M9.20898 9.91659C9.20898 9.72872 9.28361 9.54856 9.41645 9.41572C9.54929 9.28288 9.72946 9.20825 9.91732 9.20825H19.1257C19.3135 9.20825 19.4937 9.28288 19.6265 9.41572C19.7594 9.54856 19.834 9.72872 19.834 9.91659C19.834 10.1044 19.7594 10.2846 19.6265 10.4175C19.4937 10.5503 19.3135 10.6249 19.1257 10.6249H9.91732C9.72946 10.6249 9.54929 10.5503 9.41645 10.4175C9.28361 10.2846 9.20898 10.1044 9.20898 9.91659ZM9.20898 14.1666C9.20898 13.9787 9.28361 13.7986 9.41645 13.6657C9.54929 13.5329 9.72946 13.4583 9.91732 13.4583H21.2507C21.4385 13.4583 21.6187 13.5329 21.7515 13.6657C21.8844 13.7986 21.959 13.9787 21.959 14.1666C21.959 14.3544 21.8844 14.5346 21.7515 14.6675C21.6187 14.8003 21.4385 14.8749 21.2507 14.8749H9.91732C9.72946 14.8749 9.54929 14.8003 9.41645 14.6675C9.28361 14.5346 9.20898 14.3544 9.20898 14.1666ZM9.20898 18.4166C9.20898 18.2287 9.28361 18.0486 9.41645 17.9157C9.54929 17.7829 9.72946 17.7083 9.91732 17.7083H14.8757C15.0635 17.7083 15.2437 17.7829 15.3765 17.9157C15.5094 18.0486 15.584 18.2287 15.584 18.4166C15.584 18.6044 15.5094 18.7846 15.3765 18.9175C15.2437 19.0503 15.0635 19.1249 14.8757 19.1249H9.91732C9.72946 19.1249 9.54929 19.0503 9.41645 18.9175C9.28361 18.7846 9.20898 18.6044 9.20898 18.4166ZM9.20898 22.6666C9.20898 22.4787 9.28361 22.2986 9.41645 22.1657C9.54929 22.0329 9.72946 21.9583 9.91732 21.9583H14.8757C15.0635 21.9583 15.2437 22.0329 15.3765 22.1657C15.5094 22.2986 15.584 22.4787 15.584 22.6666C15.584 22.8544 15.5094 23.0346 15.3765 23.1675C15.2437 23.3003 15.0635 23.3749 14.8757 23.3749H9.91732C9.72946 23.3749 9.54929 23.3003 9.41645 23.1675C9.28361 23.0346 9.20898 22.8544 9.20898 22.6666ZM24.7923 20.5416C23.6651 20.5416 22.5841 20.9894 21.7871 21.7864C20.9901 22.5834 20.5423 23.6644 20.5423 24.7916C20.5423 25.9188 20.9901 26.9998 21.7871 27.7968C22.5841 28.5938 23.6651 29.0416 24.7923 29.0416C25.9195 29.0416 27.0005 28.5938 27.7975 27.7968C28.5946 26.9998 29.0423 25.9188 29.0423 24.7916C29.0423 23.6644 28.5946 22.5834 27.7975 21.7864C27.0005 20.9894 25.9195 20.5416 24.7923 20.5416ZM19.1257 24.7916C19.1257 23.2887 19.7227 21.8474 20.7854 20.7846C21.8481 19.7219 23.2894 19.1249 24.7923 19.1249C26.2952 19.1249 27.7365 19.7219 28.7993 20.7846C29.862 21.8474 30.459 23.2887 30.459 24.7916C30.459 26.2945 29.862 27.7358 28.7993 28.7985C27.7365 29.8612 26.2952 30.4583 24.7923 30.4583C23.2894 30.4583 21.8481 29.8612 20.7854 28.7985C19.7227 27.7358 19.1257 26.2945 19.1257 24.7916ZM27.1525 23.0505C27.2184 23.1163 27.2708 23.1945 27.3065 23.2805C27.3422 23.3666 27.3606 23.4588 27.3606 23.552C27.3606 23.6452 27.3422 23.7374 27.3065 23.8235C27.2708 23.9095 27.2184 23.9877 27.1525 24.0535L24.1718 27.0328L22.4321 25.2931C22.3663 25.2273 22.314 25.1492 22.2784 25.0633C22.2427 24.9773 22.2243 24.8852 22.2242 24.7921C22.2241 24.699 22.2424 24.6068 22.278 24.5208C22.3135 24.4348 22.3657 24.3567 22.4314 24.2908C22.5643 24.1578 22.7445 24.083 22.9324 24.0829C23.0255 24.0828 23.1177 24.1011 23.2037 24.1366C23.2897 24.1722 23.3679 24.2243 23.4337 24.2901L24.1718 25.0296L26.1509 23.0505C26.2837 22.9177 26.4639 22.8431 26.6517 22.8431C26.8395 22.8431 27.0197 22.9177 27.1525 23.0505Z" fill="white"/>
</svg>
