<svg width="32" height="32" viewBox="0 0 32 32" fill="none" xmlns="http://www.w3.org/2000/svg">
<path d="M6.66699 6.66663H24.0003C25.0612 6.66663 26.0786 7.08805 26.8287 7.8382C27.5789 8.58834 28.0003 9.60576 28.0003 10.6666V22.6666C28.0003 23.7275 27.5789 24.7449 26.8287 25.4951C26.0786 26.2452 25.0612 26.6666 24.0003 26.6666H6.66699C5.60613 26.6666 4.58871 26.2452 3.83856 25.4951C3.08842 24.7449 2.66699 23.7275 2.66699 22.6666V10.6666C2.66699 9.60576 3.08842 8.58834 3.83856 7.8382C4.58871 7.08805 5.60613 6.66663 6.66699 6.66663ZM6.66699 7.99996C5.95975 7.99996 5.28147 8.28091 4.78137 8.78101C4.28128 9.2811 4.00033 9.95938 4.00033 10.6666V12H26.667V10.6666C26.667 9.95938 26.386 9.2811 25.8859 8.78101C25.3858 8.28091 24.7076 7.99996 24.0003 7.99996H6.66699ZM4.00033 22.6666C4.00033 23.3739 4.28128 24.0521 4.78137 24.5522C5.28147 25.0523 5.95975 25.3333 6.66699 25.3333H24.0003C24.7076 25.3333 25.3858 25.0523 25.8859 24.5522C26.386 24.0521 26.667 23.3739 26.667 22.6666V16H4.00033V22.6666ZM6.66699 21.3333H12.0003V22.6666H6.66699V21.3333ZM14.667 21.3333H18.667V22.6666H14.667V21.3333ZM4.00033 13.3333V14.6666H26.667V13.3333H4.00033Z" fill="white"/>
</svg>
