<svg width="28" height="28" viewBox="0 0 28 28" fill="none" xmlns="http://www.w3.org/2000/svg">
<path d="M15.211 24.1103C14.1587 24.8862 12.4192 24.5035 12.0458 22.9635C11.9713 22.6557 11.8251 22.3699 11.6192 22.1293C11.4133 21.8887 11.1535 21.7002 10.8609 21.579C10.5683 21.4578 10.2513 21.4073 9.93558 21.4318C9.61986 21.4563 9.31438 21.555 9.044 21.7198C7.24383 22.8165 5.18233 20.7562 6.279 18.9548C6.44362 18.6846 6.54214 18.3793 6.56656 18.0638C6.59099 17.7483 6.54062 17.4314 6.41955 17.1391C6.29848 16.8467 6.11014 16.587 5.86982 16.3811C5.6295 16.1752 5.34399 16.0289 5.0365 15.9542C2.98783 15.4572 2.98783 12.5428 5.0365 12.0458C5.34427 11.9713 5.63008 11.8251 5.87067 11.6192C6.11126 11.4133 6.29983 11.1535 6.42104 10.8609C6.54224 10.5683 6.59266 10.2513 6.56818 9.93558C6.5437 9.61986 6.44502 9.31438 6.28017 9.044C5.1835 7.24383 7.24383 5.18233 9.04517 6.279C10.2118 6.98833 11.7238 6.36067 12.0458 5.0365C12.5428 2.98783 15.4572 2.98783 15.9542 5.0365C16.0287 5.34427 16.1749 5.63008 16.3808 5.87067C16.5867 6.11126 16.8465 6.29983 17.1391 6.42104C17.4316 6.54224 17.7487 6.59266 18.0644 6.56818C18.3801 6.5437 18.6856 6.44502 18.956 6.28017C20.7562 5.1835 22.8177 7.24383 21.721 9.04517C21.4658 9.46429 21.3726 9.96225 21.459 10.4453C21.5454 10.9283 21.8054 11.3631 22.19 11.6678" stroke="white" stroke-width="1.2" stroke-linecap="round" stroke-linejoin="round"/>
<path d="M17.5 13.9999C17.4998 13.2421 17.2536 12.5049 16.7985 11.899C16.3434 11.293 15.7039 10.8512 14.9761 10.6399C14.2484 10.4285 13.4717 10.4591 12.7628 10.7269C12.054 10.9948 11.4512 11.4855 11.045 12.1253C10.6389 12.7651 10.4514 13.5194 10.5107 14.2749C10.57 15.0304 10.873 15.7462 11.3739 16.3148C11.8749 16.8834 12.5469 17.274 13.2889 17.428C14.0309 17.5819 14.8028 17.4909 15.4887 17.1686M24.5 17.4999H21.5833C21.1192 17.4999 20.6741 17.6843 20.3459 18.0125C20.0177 18.3407 19.8333 18.7858 19.8333 19.2499C19.8333 19.7141 20.0177 20.1592 20.3459 20.4874C20.6741 20.8156 21.1192 20.9999 21.5833 20.9999H22.75C23.2141 20.9999 23.6593 21.1843 23.9874 21.5125C24.3156 21.8407 24.5 22.2858 24.5 22.7499C24.5 23.2141 24.3156 23.6592 23.9874 23.9874C23.6593 24.3156 23.2141 24.4999 22.75 24.4999H19.8333M22.1667 24.4999V25.6666M22.1667 16.3333V17.4999" stroke="white" stroke-width="1.2" stroke-linecap="round" stroke-linejoin="round"/>
</svg>
