<svg width="33" height="33" viewBox="0 0 33 33" fill="none" xmlns="http://www.w3.org/2000/svg">
<path d="M19.25 2.75V8.25C19.25 8.97935 19.5397 9.67882 20.0555 10.1945C20.5712 10.7103 21.2707 11 22 11H27.5M13.75 12.375H11M22 17.875H11M22 23.375H11M20.625 2.75H8.25C7.52065 2.75 6.82118 3.03973 6.30546 3.55546C5.78973 4.07118 5.5 4.77065 5.5 5.5V27.5C5.5 28.2293 5.78973 28.9288 6.30546 29.4445C6.82118 29.9603 7.52065 30.25 8.25 30.25H24.75C25.4793 30.25 26.1788 29.9603 26.6945 29.4445C27.2103 28.9288 27.5 28.2293 27.5 27.5V9.625L20.625 2.75Z" stroke="white" stroke-linecap="round" stroke-linejoin="round"/>
</svg>
