<svg width="28" height="28" viewBox="0 0 28 28" fill="none" xmlns="http://www.w3.org/2000/svg">
<path d="M17.4997 2.33331V4.66665M17.4997 23.3333V25.6666M2.33301 17.5H4.66634M2.33301 10.5H4.66634M23.333 17.5H25.6663M23.333 10.5H25.6663M10.4997 2.33331V4.66665M10.4997 23.3333V25.6666M6.99967 4.66665H20.9997C22.2883 4.66665 23.333 5.71132 23.333 6.99998V21C23.333 22.2886 22.2883 23.3333 20.9997 23.3333H6.99967C5.71101 23.3333 4.66634 22.2886 4.66634 21V6.99998C4.66634 5.71132 5.71101 4.66665 6.99967 4.66665ZM11.6663 10.5H16.333C16.9773 10.5 17.4997 11.0223 17.4997 11.6666V16.3333C17.4997 16.9776 16.9773 17.5 16.333 17.5H11.6663C11.022 17.5 10.4997 16.9776 10.4997 16.3333V11.6666C10.4997 11.0223 11.022 10.5 11.6663 10.5Z" stroke="white" stroke-linecap="round" stroke-linejoin="round"/>
</svg>
