<svg width="24" height="26" viewBox="0 0 24 26" fill="none" xmlns="http://www.w3.org/2000/svg">
<path d="M6.80887 17.0396H21.1341C22.7163 17.0396 24.0002 15.7504 24.0002 14.1735V8.14291C24.0002 7.7913 23.7126 7.50362 23.3609 7.50362C23.0093 7.50362 22.7217 7.7913 22.7217 8.14291V14.1735C22.7217 15.0525 22.0078 15.761 21.1341 15.761H6.80887C5.92986 15.761 5.22132 15.0472 5.22132 14.1735V10.6201V6.64592V6.12917V2.38404C5.22132 2.36273 5.22132 2.34142 5.21599 2.31479C5.21599 2.30946 5.21599 2.30413 5.21599 2.2988C5.21599 2.28282 5.21066 2.26684 5.21066 2.25618C5.21066 2.24553 5.20534 2.22955 5.20001 2.21889C5.20001 2.21357 5.19468 2.20291 5.19468 2.19758C5.18935 2.1816 5.18403 2.17095 5.1787 2.16029C5.1787 2.15496 5.17337 2.14964 5.17337 2.13898C5.16805 2.12833 5.16272 2.11767 5.15739 2.10169C5.15206 2.09636 5.15206 2.08571 5.14674 2.08038C5.14141 2.06973 5.13608 2.05907 5.13075 2.05375C5.12543 2.04309 5.1201 2.03776 5.11477 2.02711C5.10944 2.02178 5.10412 2.01113 5.09879 2.0058C5.09346 1.99514 5.08281 1.98449 5.07748 1.97383C5.07215 1.96851 5.06683 1.96318 5.06683 1.95785C5.05617 1.9472 5.05084 1.93654 5.04019 1.92589C5.03486 1.92056 5.02953 1.92056 5.02953 1.91523C5.01888 1.90458 5.00823 1.89392 4.99757 1.88327C4.99224 1.87794 4.98692 1.87262 4.98159 1.87262C4.97093 1.86196 4.96028 1.85663 4.94962 1.84598C4.93897 1.84065 4.92831 1.83 4.91233 1.82467C4.90701 1.81934 4.90168 1.81934 4.89635 1.81401C4.87504 1.80336 4.85373 1.7927 4.83775 1.78205L0.890184 0.130572C0.565215 -0.00793932 0.192301 0.146554 0.0537895 0.471522C-0.0847216 0.79649 0.0697716 1.1694 0.39474 1.30792L3.93743 2.8049V6.12917V6.64592V10.6201V14.1735V18.6644C3.93743 20.1667 5.09346 21.3974 6.56381 21.5199C6.26548 21.9674 6.08968 22.5054 6.08968 23.0861C6.08968 24.647 7.36291 25.9203 8.92383 25.9203C10.4847 25.9203 11.758 24.647 11.758 23.0861C11.758 22.5108 11.5875 21.978 11.2945 21.5305H18.0762C17.7832 21.978 17.6127 22.5108 17.6127 23.0861C17.6127 24.647 18.886 25.9203 20.4469 25.9203C22.0078 25.9203 23.281 24.647 23.281 23.0861C23.281 21.5252 22.0078 20.252 20.4469 20.252H6.80887C5.92986 20.252 5.22132 19.5381 5.22132 18.6644V16.5601C5.67414 16.8638 6.22286 17.0396 6.80887 17.0396ZM10.4794 23.0861C10.4794 23.9438 9.78153 24.6417 8.92383 24.6417C8.06612 24.6417 7.36824 23.9438 7.36824 23.0861C7.36824 22.2284 8.06612 21.5305 8.92383 21.5305C9.78153 21.5305 10.4794 22.2284 10.4794 23.0861ZM21.9971 23.0861C21.9971 23.9438 21.2993 24.6417 20.4416 24.6417C19.5839 24.6417 18.886 23.9438 18.886 23.0861C18.886 22.2284 19.5839 21.5305 20.4416 21.5305C21.2993 21.5305 21.9971 22.2284 21.9971 23.0861Z" fill="white"/>
<path d="M14.186 1.88904C13.9129 1.88904 13.6399 1.9928 13.416 2.21123L9.04719 6.58C8.61578 7.00596 8.61578 7.69404 9.04719 8.12L13.416 12.4888C13.8419 12.9202 14.53 12.9202 14.956 12.4888L19.3247 8.12C19.7561 7.69404 19.7561 7.00596 19.3247 6.58L14.956 2.21123C14.7321 1.9928 14.459 1.88904 14.186 1.88904ZM14.186 2.98123L18.5547 7.35L14.186 11.7188L9.81719 7.35L14.186 2.98123Z" fill="white"/>
</svg>
