<svg width="28" height="28" viewBox="0 0 28 28" fill="none" xmlns="http://www.w3.org/2000/svg">
<path fill-rule="evenodd" clip-rule="evenodd" d="M1.55556 0.777778H13.5214C13.9509 0.777778 14.2992 1.126 14.2992 1.55556V4.30774H15.0769V1.55556C15.0769 0.696446 14.3805 0 13.5214 0H1.55556C0.696446 0 0 0.696445 0 1.55555V13.5214C0 14.3805 0.696445 15.0769 1.55555 15.0769H4.30859V14.2992H1.55555C1.126 14.2992 0.777778 13.9509 0.777778 13.5214V1.55555C0.777778 1.126 1.126 0.777778 1.55556 0.777778ZM10.7689 2.73077C11.0451 2.73077 11.2689 2.95463 11.2689 3.23077V4.88462H16.7305V3.23077C16.7305 2.95463 16.9543 2.73077 17.2305 2.73077C17.5066 2.73077 17.7305 2.95463 17.7305 3.23077V4.88462H20.4612C21.9269 4.88462 23.1151 6.07279 23.1151 7.53847V10.2692H24.7689C25.0451 10.2692 25.2689 10.4931 25.2689 10.7692C25.2689 11.0454 25.0451 11.2692 24.7689 11.2692H23.1151V16.7308H24.7689C25.0451 16.7308 25.2689 16.9546 25.2689 17.2308C25.2689 17.5069 25.0451 17.7308 24.7689 17.7308H23.1151V20.4615C23.1151 21.9272 21.9269 23.1154 20.4612 23.1154H17.7305V24.7692C17.7305 25.0454 17.5066 25.2692 17.2305 25.2692C16.9543 25.2692 16.7305 25.0454 16.7305 24.7692V23.1154H11.2689V24.7692C11.2689 25.0454 11.0451 25.2692 10.7689 25.2692C10.4928 25.2692 10.2689 25.0454 10.2689 24.7692V23.1154H7.53816C6.07248 23.1154 4.88432 21.9272 4.88432 20.4615V17.7308H3.23047C2.95433 17.7308 2.73047 17.5069 2.73047 17.2308C2.73047 16.9546 2.95433 16.7308 3.23047 16.7308H4.88432V11.2692H3.23047C2.95433 11.2692 2.73047 11.0454 2.73047 10.7692C2.73047 10.4931 2.95433 10.2692 3.23047 10.2692H4.88432V7.53847C4.88432 6.07279 6.07248 4.88462 7.53816 4.88462H10.2689V3.23077C10.2689 2.95463 10.4928 2.73077 10.7689 2.73077ZM10.7689 5.88462H7.53816C6.62477 5.88462 5.88432 6.62507 5.88432 7.53847V10.7692V17.2308V20.4615C5.88432 21.3749 6.62477 22.1154 7.53816 22.1154H10.7689H17.2305H20.4612C21.3746 22.1154 22.1151 21.3749 22.1151 20.4615V17.2308V10.7692V7.53847C22.1151 6.62507 21.3746 5.88462 20.4612 5.88462H17.2305H10.7689ZM11.8459 11.2692C11.5272 11.2692 11.2689 11.5275 11.2689 11.8462V16.1539C11.2689 16.4725 11.5272 16.7308 11.8459 16.7308H16.1535C16.4722 16.7308 16.7305 16.4725 16.7305 16.1539V11.8462C16.7305 11.5275 16.4722 11.2692 16.1535 11.2692H11.8459ZM10.2689 11.8462C10.2689 10.9753 10.9749 10.2692 11.8459 10.2692H16.1535C17.0245 10.2692 17.7305 10.9753 17.7305 11.8462V16.1539C17.7305 17.0248 17.0245 17.7308 16.1535 17.7308H11.8459C10.9749 17.7308 10.2689 17.0248 10.2689 16.1539V11.8462ZM12.9221 26.4445V23.6924H13.6998V26.4445C13.6998 26.874 14.0481 27.2222 14.4776 27.2222H26.4434C26.873 27.2222 27.2212 26.874 27.2212 26.4445V14.4786C27.2212 14.0491 26.873 13.7009 26.4434 13.7009H23.6913V12.9231H26.4434C27.3025 12.9231 27.999 13.6195 27.999 14.4786V26.4445C27.999 27.3036 27.3025 28 26.4434 28H14.4776C13.6185 28 12.9221 27.3036 12.9221 26.4445Z" fill="white"/>
</svg>
