<svg width="35" height="29" viewBox="0 0 35 29" fill="none" xmlns="http://www.w3.org/2000/svg">
<path fill-rule="evenodd" clip-rule="evenodd" d="M7.25 3.75C7.25 2.50736 8.25736 1.5 9.5 1.5H30.5C31.7426 1.5 32.75 2.50736 32.75 3.75V24.75C32.75 25.9926 31.7426 27 30.5 27H21.6615C21.4852 27.1556 21.2536 27.25 21 27.25H6.70487C7.39152 28.0172 8.38937 28.5 9.5 28.5H30.5C32.5711 28.5 34.25 26.8211 34.25 24.75V3.75C34.25 1.67893 32.5711 0 30.5 0H9.5C7.42893 0 5.75 1.67893 5.75 3.75V14.25H7.25V3.75ZM21.9685 15C21.8575 14.5687 21.466 14.25 21 14.25H13.25C13.25 13.8358 13.5858 13.5 14 13.5H23C23.4142 13.5 23.75 13.8358 23.75 14.25C23.75 14.6642 23.4142 15 23 15H21.9685ZM22 21V19.5H26C26.4142 19.5 26.75 19.8358 26.75 20.25C26.75 20.6642 26.4142 21 26 21H22ZM15.5 7.5C15.0858 7.5 14.75 7.83579 14.75 8.25C14.75 8.66421 15.0858 9 15.5 9H26C26.4142 9 26.75 8.66421 26.75 8.25C26.75 7.83579 26.4142 7.5 26 7.5H15.5Z" fill="white"/>
<rect x="0.583333" y="14.8333" width="21.8333" height="11.8333" rx="0.583333" stroke="white" stroke-width="1.16667"/>
<path d="M2.71911 24.25V17.7045H3.70668V23.3999H6.67259V24.25H2.71911ZM13.23 20.9773C13.23 21.6761 13.1022 22.277 12.8465 22.7798C12.5908 23.2805 12.2403 23.6662 11.795 23.9368C11.3518 24.2053 10.8479 24.3395 10.2833 24.3395C9.71653 24.3395 9.21049 24.2053 8.76518 23.9368C8.322 23.6662 7.97257 23.2795 7.71689 22.7766C7.4612 22.2738 7.33336 21.674 7.33336 20.9773C7.33336 20.2784 7.4612 19.6786 7.71689 19.1779C7.97257 18.6751 8.322 18.2894 8.76518 18.021C9.21049 17.7504 9.71653 17.6151 10.2833 17.6151C10.8479 17.6151 11.3518 17.7504 11.795 18.021C12.2403 18.2894 12.5908 18.6751 12.8465 19.1779C13.1022 19.6786 13.23 20.2784 13.23 20.9773ZM12.252 20.9773C12.252 20.4446 12.1657 19.9961 11.9932 19.6317C11.8227 19.2653 11.5883 18.9883 11.29 18.8008C10.9939 18.6112 10.6583 18.5163 10.2833 18.5163C9.90616 18.5163 9.56951 18.6112 9.27335 18.8008C8.97718 18.9883 8.74281 19.2653 8.57022 19.6317C8.39977 19.9961 8.31454 20.4446 8.31454 20.9773C8.31454 21.5099 8.39977 21.9595 8.57022 22.326C8.74281 22.6903 8.97718 22.9673 9.27335 23.157C9.56951 23.3445 9.90616 23.4382 10.2833 23.4382C10.6583 23.4382 10.9939 23.3445 11.29 23.157C11.5883 22.9673 11.8227 22.6903 11.9932 22.326C12.1657 21.9595 12.252 21.5099 12.252 20.9773ZM18.891 19.7724C18.8292 19.5785 18.7461 19.4048 18.6417 19.2514C18.5394 19.0959 18.4169 18.9638 18.2741 18.8551C18.1314 18.7443 17.9684 18.6602 17.7852 18.6026C17.604 18.5451 17.4048 18.5163 17.1875 18.5163C16.8189 18.5163 16.4865 18.6112 16.1903 18.8008C15.8942 18.9904 15.6598 19.2685 15.4872 19.6349C15.3168 19.9993 15.2315 20.4457 15.2315 20.9741C15.2315 21.5046 15.3178 21.9531 15.4904 22.3196C15.663 22.6861 15.8995 22.9641 16.1999 23.1538C16.5004 23.3434 16.8423 23.4382 17.2259 23.4382C17.5817 23.4382 17.8917 23.3658 18.1559 23.2209C18.4222 23.076 18.6278 22.8714 18.7727 22.6072C18.9197 22.3409 18.9933 22.0277 18.9933 21.6676L19.2489 21.7156H17.3761V20.9006H19.9489V21.6452C19.9489 22.195 19.8317 22.6722 19.5973 23.0771C19.3651 23.4798 19.0433 23.7908 18.6321 24.0103C18.223 24.2298 17.7543 24.3395 17.2259 24.3395C16.6335 24.3395 16.1136 24.2031 15.6662 23.9304C15.2209 23.6577 14.8736 23.271 14.6243 22.7702C14.375 22.2674 14.2504 21.6708 14.2504 20.9805C14.2504 20.4585 14.3228 19.9897 14.4677 19.5742C14.6126 19.1587 14.8161 18.8061 15.0781 18.5163C15.3423 18.2244 15.6523 18.0018 16.0082 17.8484C16.3661 17.6928 16.7571 17.6151 17.1811 17.6151C17.5348 17.6151 17.864 17.6673 18.1687 17.7717C18.4755 17.8761 18.7482 18.0241 18.9869 18.2159C19.2276 18.4077 19.4268 18.6357 19.5845 18.8999C19.7422 19.1619 19.8487 19.4528 19.9041 19.7724H18.891Z" fill="white"/>
</svg>
