<svg width="33" height="32" viewBox="0 0 33 32" fill="none" xmlns="http://www.w3.org/2000/svg">
<path d="M16.5001 21.6287C15.1256 21.6287 13.9045 21.2131 12.837 20.3818C11.7694 19.5506 11.052 18.5072 10.6847 17.2516H11.8941C12.2398 18.2166 12.8228 18.997 13.6428 19.5928C14.4629 20.1878 15.4153 20.4853 16.5001 20.4853C17.8669 20.4853 19.0293 20.0059 19.9873 19.047C20.9462 18.0889 21.4256 16.9266 21.4256 15.5598C21.4256 14.193 20.9462 13.0306 19.9873 12.0726C19.0284 11.1146 17.866 10.6351 16.5001 10.6343C15.7094 10.6343 14.9531 10.8261 14.2314 11.2099C13.5096 11.5944 12.8861 12.0989 12.361 12.7232H14.8082V13.8679H10.4311V9.49083H11.5746V11.8812C12.1903 11.1715 12.9275 10.5955 13.7864 10.1531C14.6453 9.71158 15.5498 9.49083 16.5001 9.49083C18.173 9.49083 19.6027 10.0841 20.7892 11.2706C21.9758 12.4572 22.569 13.8869 22.569 15.5598C22.569 17.2327 21.9758 18.6624 20.7892 19.8489C19.6027 21.0355 18.173 21.6287 16.5001 21.6287ZM8.24259 25.9075C7.64673 25.9075 7.14961 25.7083 6.75122 25.31C6.35283 24.9116 6.15321 24.414 6.15234 23.8173V19.4402H7.44581V23.8186C7.44581 24.0169 7.52859 24.1993 7.69416 24.3657C7.85972 24.5322 8.0421 24.6149 8.2413 24.6141H12.6197V25.9075H8.24259ZM20.3805 25.9075V24.6141H24.7589C24.9572 24.6141 25.1396 24.5313 25.306 24.3657C25.4725 24.2002 25.5552 24.0173 25.5544 23.8173V19.4402H26.8478V23.8186C26.8478 24.4136 26.6487 24.9103 26.2503 25.3087C25.8519 25.7071 25.3543 25.9067 24.7576 25.9075H20.3805ZM6.15234 11.6794V7.30228C6.15234 6.70642 6.35197 6.2093 6.75122 5.81091C7.15047 5.41252 7.64759 5.2129 8.24259 5.21204H12.6197V6.5055H8.24259C8.0434 6.5055 7.86058 6.58829 7.69416 6.75385C7.52773 6.91941 7.44495 7.10223 7.44581 7.30228V11.6794H6.15234ZM25.5544 11.6794V7.30228C25.5544 7.10309 25.4716 6.92028 25.306 6.75385C25.1405 6.58742 24.9577 6.50464 24.7576 6.5055H20.3805V5.21204H24.7589C25.3539 5.21204 25.8506 5.41166 26.249 5.81091C26.6474 6.21016 26.847 6.70729 26.8478 7.30228V11.6794H25.5544Z" fill="white"/>
</svg>
