<svg width="29" height="29" viewBox="0 0 29 29" fill="none" xmlns="http://www.w3.org/2000/svg">
<path d="M3.78439 17.3919C4.70893 17.3919 5.45842 16.6424 5.45842 15.7179C5.45842 14.7933 4.70893 14.0438 3.78439 14.0438C2.85984 14.0438 2.11035 14.7933 2.11035 15.7179C2.11035 16.6424 2.85984 17.3919 3.78439 17.3919Z" fill="white"/>
<path d="M14.6945 6.16143C15.6191 6.16143 16.3686 5.41194 16.3686 4.48739C16.3686 3.56285 15.6191 2.81335 14.6945 2.81335C13.77 2.81335 13.0205 3.56285 13.0205 4.48739C13.0205 5.41194 13.77 6.16143 14.6945 6.16143Z" fill="white"/>
<path d="M25.2815 25.7342C26.206 25.7342 26.9555 24.9847 26.9555 24.0601C26.9555 23.1356 26.206 22.3861 25.2815 22.3861C24.3569 22.3861 23.6074 23.1356 23.6074 24.0601C23.6074 24.9847 24.3569 25.7342 25.2815 25.7342Z" fill="white"/>
<path d="M10.5418 23.5699H7.88126C7.72879 23.5699 7.58257 23.6305 7.47476 23.7383C7.36695 23.8461 7.30638 23.9923 7.30638 24.1448C7.30638 24.2973 7.36695 24.4435 7.47476 24.5513C7.58257 24.6591 7.72879 24.7197 7.88126 24.7197H10.5418C10.6942 24.7197 10.8405 24.6591 10.9483 24.5513C11.0561 24.4435 11.1167 24.2973 11.1167 24.1448C11.1167 23.9923 11.0561 23.8461 10.9483 23.7383C10.8405 23.6305 10.6942 23.5699 10.5418 23.5699ZM15.8631 23.5699H13.2023C13.0498 23.5699 12.9036 23.6305 12.7958 23.7383C12.688 23.8461 12.6274 23.9923 12.6274 24.1448C12.6274 24.2973 12.688 24.4435 12.7958 24.5513C12.9036 24.6591 13.0498 24.7197 13.2023 24.7197H15.8628C16.0153 24.7197 16.1615 24.6592 16.2694 24.5514C16.3772 24.4436 16.4378 24.2974 16.4378 24.1449C16.4379 23.9925 16.3773 23.8462 16.2696 23.7384C16.1618 23.6306 16.0156 23.57 15.8631 23.5699ZM21.1839 23.5699H18.5233C18.3709 23.5699 18.2247 23.6305 18.1168 23.7383C18.009 23.8461 17.9485 23.9923 17.9485 24.1448C17.9485 24.2973 18.009 24.4435 18.1168 24.5513C18.2247 24.6591 18.3709 24.7197 18.5233 24.7197H21.1839C21.3363 24.7197 21.4826 24.6591 21.5904 24.5513C21.6982 24.4435 21.7587 24.2973 21.7587 24.1448C21.7587 23.9923 21.6982 23.8461 21.5904 23.7383C21.4826 23.6305 21.3363 23.5699 21.1839 23.5699ZM5.22074 23.5699H4.31186V22.6231C4.31186 22.4706 4.25129 22.3244 4.14348 22.2166C4.03567 22.1088 3.88945 22.0482 3.73698 22.0482C3.58452 22.0482 3.4383 22.1088 3.33049 22.2166C3.22268 22.3244 3.16211 22.4706 3.16211 22.6231V24.0603C3.16211 24.3779 3.46622 24.7197 3.78355 24.7197H5.22074C5.3732 24.7197 5.51942 24.6591 5.62723 24.5513C5.73504 24.4435 5.79561 24.2973 5.79561 24.1448C5.79561 23.9923 5.73504 23.8461 5.62723 23.7383C5.51942 23.6305 5.3732 23.5699 5.22074 23.5699ZM3.16211 18.4826V19.2834C3.16211 19.4358 3.22268 19.5821 3.33049 19.6899C3.4383 19.7977 3.58452 19.8582 3.73698 19.8582C3.88945 19.8582 4.03567 19.7977 4.14348 19.6899C4.25129 19.5821 4.31186 19.4358 4.31186 19.2834V18.4826C4.31186 18.5211 3.93388 18.5418 3.73698 18.5418C3.54009 18.5418 3.44955 18.5211 3.16211 18.4826ZM4.22793 12.9362C4.2949 12.8422 4.31186 12.7281 4.31186 12.6039V9.26416C4.31186 9.11169 4.25129 8.96547 4.14348 8.85766C4.03567 8.74985 3.88945 8.68928 3.73698 8.68928C3.58452 8.68928 3.4383 8.74985 3.33049 8.85766C3.22268 8.96547 3.16211 9.11169 3.16211 9.26416V12.6039C3.16211 12.7281 3.22563 12.8422 3.29261 12.9362C3.44524 12.9106 3.60074 12.8942 3.76027 12.8942C3.91979 12.8942 4.07559 12.9106 4.22793 12.9362ZM3.73698 6.49958C3.88945 6.49958 4.03567 6.43901 4.14348 6.3312C4.25129 6.22339 4.31186 6.07717 4.31186 5.92471V5.17392H5.22074C5.3732 5.17392 5.51942 5.11335 5.62723 5.00554C5.73504 4.89773 5.79561 4.75151 5.79561 4.59904C5.79561 4.44658 5.73504 4.30036 5.62723 4.19255C5.51942 4.08474 5.3732 4.02417 5.22074 4.02417H3.78355C3.46622 4.02417 3.16211 4.1699 3.16211 4.48752V5.92471C3.16211 6.07717 3.22268 6.22339 3.33049 6.3312C3.4383 6.43901 3.58452 6.49958 3.73698 6.49958ZM7.88126 5.17392H10.5418C10.6942 5.17392 10.8405 5.11335 10.9483 5.00554C11.0561 4.89773 11.1167 4.75151 11.1167 4.59904C11.1167 4.44658 11.0561 4.30036 10.9483 4.19255C10.8405 4.08474 10.6942 4.02417 10.5418 4.02417H7.88126C7.72879 4.02417 7.58257 4.08474 7.47476 4.19255C7.36695 4.30036 7.30638 4.44658 7.30638 4.59904C7.30638 4.75151 7.36695 4.89773 7.47476 5.00554C7.58257 5.11335 7.72879 5.17392 7.88126 5.17392ZM21.1839 4.02417H18.5233C18.3709 4.02417 18.2247 4.08474 18.1168 4.19255C18.009 4.30036 17.9485 4.44658 17.9485 4.59904C17.9485 4.75151 18.009 4.89773 18.1168 5.00554C18.2247 5.11335 18.3709 5.17392 18.5233 5.17392H21.1839C21.3363 5.17392 21.4826 5.11335 21.5904 5.00554C21.6982 4.89773 21.7587 4.75151 21.7587 4.59904C21.7587 4.44658 21.6982 4.30036 21.5904 4.19255C21.4826 4.08474 21.3363 4.02417 21.1839 4.02417ZM23.8444 5.17392H24.7199V5.92471C24.7199 6.07717 24.7805 6.22339 24.8883 6.3312C24.9961 6.43901 25.1423 6.49958 25.2948 6.49958C25.4473 6.49958 25.5935 6.43901 25.7013 6.3312C25.8091 6.22339 25.8697 6.07717 25.8697 5.92471V4.48752C25.8697 4.1699 25.5992 4.02417 25.2816 4.02417H23.8444C23.6919 4.02417 23.5457 4.08474 23.4379 4.19255C23.3301 4.30036 23.2695 4.44658 23.2695 4.59904C23.2695 4.75151 23.3301 4.89773 23.4379 5.00554C23.5457 5.11335 23.6919 5.17392 23.8444 5.17392ZM25.8697 9.26444C25.8697 9.11198 25.8091 8.96576 25.7013 8.85795C25.5935 8.75014 25.4473 8.68957 25.2948 8.68957C25.1423 8.68957 24.9961 8.75014 24.8883 8.85795C24.7805 8.96576 24.7199 9.11198 24.7199 9.26444V12.6042C24.7199 12.7566 24.7805 12.9029 24.8883 13.0107C24.9961 13.1185 25.1423 13.1791 25.2948 13.1791C25.4473 13.1791 25.5935 13.1185 25.7013 13.0107C25.8091 12.9029 25.8697 12.7566 25.8697 12.6042V9.26444ZM25.2948 15.369C25.1423 15.369 24.9961 15.4296 24.8883 15.5374C24.7805 15.6452 24.7199 15.7915 24.7199 15.9439V19.2834C24.7199 19.4358 24.7805 19.5821 24.8883 19.6899C24.9961 19.7977 25.1423 19.8582 25.2948 19.8582C25.4473 19.8582 25.5935 19.7977 25.7013 19.6899C25.8091 19.5821 25.8697 19.4358 25.8697 19.2834V15.9439C25.8697 15.7915 25.8091 15.6452 25.7013 15.5374C25.5935 15.4296 25.4473 15.369 25.2948 15.369Z" fill="white"/>
</svg>
