<svg width="26" height="26" viewBox="0 0 26 26" fill="none" xmlns="http://www.w3.org/2000/svg">
<path d="M12.628 21.047C14.8608 21.047 17.0021 20.16 18.581 18.5812C20.1598 17.0024 21.0468 14.861 21.0468 12.6282C21.0468 10.3954 20.1598 8.25407 18.581 6.67524C17.0021 5.09641 14.8608 4.20943 12.628 4.20943M12.628 21.047C10.3952 21.047 8.25382 20.16 6.675 18.5812C5.09617 17.0024 4.20919 14.861 4.20919 12.6282M12.628 21.047V23.1517M12.628 4.20943C10.3952 4.20943 8.25382 5.09641 6.675 6.67524C5.09617 8.25407 4.20919 10.3954 4.20919 12.6282M12.628 4.20943V2.10474M4.20919 12.6282H2.10449M14.7327 12.6282C14.7327 13.1864 14.5109 13.7218 14.1162 14.1165C13.7215 14.5112 13.1862 14.7329 12.628 14.7329C12.0698 14.7329 11.5344 14.5112 11.1397 14.1165C10.745 13.7218 10.5233 13.1864 10.5233 12.6282C10.5233 12.07 10.745 11.5347 11.1397 11.14C11.5344 10.7453 12.0698 10.5235 12.628 10.5235C13.1862 10.5235 13.7215 10.7453 14.1162 11.14C14.5109 11.5347 14.7327 12.07 14.7327 12.6282ZM14.7327 12.6282H23.1515M17.8897 21.7415L16.8374 19.9209M11.5756 10.8078L7.36623 3.51498M21.7412 17.89L19.9207 16.8376M3.51473 7.36648L5.33529 8.41883M21.7412 7.36648L19.9207 8.41883M3.51473 17.89L5.33529 16.8376M17.8897 3.51498L16.8374 5.33554M11.5756 14.4488L7.36623 21.7415" stroke="white" stroke-width="1.14975" stroke-linecap="round" stroke-linejoin="round"/>
</svg>
