<svg width="28" height="28" viewBox="0 0 28 28" fill="none" xmlns="http://www.w3.org/2000/svg">
<path d="M5.83301 18.6667V15.1667C5.83301 14.8573 5.95592 14.5605 6.17472 14.3417C6.39351 14.1229 6.69026 14 6.99967 14H20.9997C21.3091 14 21.6058 14.1229 21.8246 14.3417C22.0434 14.5605 22.1663 14.8573 22.1663 15.1667V18.6667M13.9997 14V9.33334M19.833 18.6667H24.4997C25.144 18.6667 25.6663 19.189 25.6663 19.8333V24.5C25.6663 25.1443 25.144 25.6667 24.4997 25.6667H19.833C19.1887 25.6667 18.6663 25.1443 18.6663 24.5V19.8333C18.6663 19.189 19.1887 18.6667 19.833 18.6667ZM3.49967 18.6667H8.16634C8.81067 18.6667 9.33301 19.189 9.33301 19.8333V24.5C9.33301 25.1443 8.81067 25.6667 8.16634 25.6667H3.49967C2.85534 25.6667 2.33301 25.1443 2.33301 24.5V19.8333C2.33301 19.189 2.85534 18.6667 3.49967 18.6667ZM11.6663 2.33334H16.333C16.9773 2.33334 17.4997 2.85568 17.4997 3.50001V8.16668C17.4997 8.81101 16.9773 9.33334 16.333 9.33334H11.6663C11.022 9.33334 10.4997 8.81101 10.4997 8.16668V3.50001C10.4997 2.85568 11.022 2.33334 11.6663 2.33334Z" stroke="white" stroke-linecap="round" stroke-linejoin="round"/>
<path d="M5.83301 18.6667V15.1667C5.83301 14.8573 5.95592 14.5605 6.17472 14.3417C6.39351 14.1229 6.69026 14 6.99967 14H20.9997C21.3091 14 21.6058 14.1229 21.8246 14.3417C22.0434 14.5605 22.1663 14.8573 22.1663 15.1667V18.6667M13.9997 14V9.33334M19.833 18.6667H24.4997C25.144 18.6667 25.6663 19.189 25.6663 19.8333V24.5C25.6663 25.1443 25.144 25.6667 24.4997 25.6667H19.833C19.1887 25.6667 18.6663 25.1443 18.6663 24.5V19.8333C18.6663 19.189 19.1887 18.6667 19.833 18.6667ZM3.49967 18.6667H8.16634C8.81067 18.6667 9.33301 19.189 9.33301 19.8333V24.5C9.33301 25.1443 8.81067 25.6667 8.16634 25.6667H3.49967C2.85534 25.6667 2.33301 25.1443 2.33301 24.5V19.8333C2.33301 19.189 2.85534 18.6667 3.49967 18.6667ZM11.6663 2.33334H16.333C16.9773 2.33334 17.4997 2.85568 17.4997 3.50001V8.16668C17.4997 8.81101 16.9773 9.33334 16.333 9.33334H11.6663C11.022 9.33334 10.4997 8.81101 10.4997 8.16668V3.50001C10.4997 2.85568 11.022 2.33334 11.6663 2.33334Z" stroke="white" stroke-linecap="round" stroke-linejoin="round"/>
</svg>
