<svg width="24" height="24" viewBox="0 0 24 24" fill="none" xmlns="http://www.w3.org/2000/svg">
<path d="M23.5315 13.1316C23.8315 12.8316 24 12.4247 24 12.0004C24 11.5761 23.8315 11.1693 23.5315 10.8692L18.902 6.23963L21.222 3.95004C21.5642 4.03523 21.9249 4.00509 22.2482 3.86431C22.5716 3.72353 22.8394 3.47998 23.0101 3.17144C23.1809 2.8629 23.2451 2.50662 23.1927 2.1579C23.1403 1.80917 22.9742 1.48748 22.7203 1.24275C22.4664 0.998024 22.1389 0.843933 21.7884 0.804389C21.438 0.764845 21.0844 0.842059 20.7823 1.02405C20.4802 1.20604 20.2467 1.48264 20.1179 1.81092C19.9891 2.1392 19.9723 2.50081 20.07 2.83964L17.7708 5.10843L13.1316 0.468456C12.8316 0.168504 12.4247 0 12.0004 0C11.5761 0 11.1693 0.168504 10.8692 0.468456L6.23963 5.09963L3.95004 2.77805C4.03478 2.43577 4.0042 2.07509 3.86304 1.75196C3.72188 1.42884 3.47803 1.16133 3.16932 0.990938C2.86061 0.820547 2.50429 0.756796 2.15565 0.809578C1.80701 0.862359 1.48554 1.02872 1.24109 1.28286C0.996652 1.53699 0.842911 1.86469 0.80372 2.21512C0.76453 2.56555 0.842081 2.91912 1.02434 3.22097C1.20661 3.52283 1.48339 3.7561 1.81176 3.88459C2.14012 4.01309 2.50172 4.02962 2.84044 3.93164L5.10843 6.23003L0.468456 10.8692C0.168504 11.1693 0 11.5761 0 12.0004C0 12.4247 0.168504 12.8316 0.468456 13.1316L5.10843 17.7708L2.84044 20.0692C2.50243 19.9718 2.14175 19.9887 1.8143 20.1171C1.48684 20.2456 1.21091 20.4785 1.02927 20.7797C0.847627 21.0809 0.77042 21.4337 0.809615 21.7832C0.848811 22.1328 1.00222 22.4597 1.24606 22.7132C1.48991 22.9667 1.81057 23.1327 2.15834 23.1854C2.50611 23.2382 2.86157 23.1747 3.16963 23.0049C3.47768 22.8351 3.72112 22.5685 3.86222 22.2463C4.00331 21.9241 4.03418 21.5643 3.95004 21.2228L6.23963 18.9028L10.8692 23.5315C11.1693 23.8315 11.5761 24 12.0004 24C12.4247 24 12.8316 23.8315 13.1316 23.5315L17.7716 18.8924L20.0692 21.1612C19.9718 21.4992 19.9887 21.8598 20.1171 22.1873C20.2456 22.5148 20.4785 22.7907 20.7797 22.9723C21.0809 23.154 21.4337 23.2312 21.7832 23.192C22.1328 23.1528 22.4597 22.9994 22.7132 22.7555C22.9667 22.5117 23.1327 22.191 23.1854 21.8433C23.2382 21.4955 23.1747 21.14 23.0049 20.832C22.8351 20.5239 22.5685 20.2805 22.2463 20.1394C21.9241 19.9983 21.5643 19.9674 21.2228 20.0516L18.9028 17.7612L23.5315 13.1316ZM12.0004 22.9723L1.02434 12.0004L12.0004 1.02405L23.0101 12.0004L12.0004 22.9723Z" fill="white"/>
<path d="M8.33887 9.94098H15.6626V15.8945H8.33887V9.94098Z" stroke="white" stroke-linecap="round" stroke-linejoin="round"/>
<path d="M9.67285 9.94103V8.98436C9.67285 8.36707 9.91807 7.77506 10.3546 7.33857C10.7911 6.90208 11.3831 6.65686 12.0004 6.65686C12.6176 6.65686 13.2097 6.90208 13.6461 7.33857C14.0826 7.77506 14.3279 8.36707 14.3279 8.98436V9.94103" stroke="white" stroke-linecap="round" stroke-linejoin="round"/>
</svg>
