<svg width="28" height="28" viewBox="0 0 28 28" fill="none" xmlns="http://www.w3.org/2000/svg">
<path d="M10.3389 10.941H17.6626V16.8945H10.3389V10.941Z" stroke="white" stroke-linecap="round" stroke-linejoin="round"/>
<path d="M13.9997 25.375C16.3855 24.8552 23.2601 20.461 23.2601 14.9567V4.515C23.2601 4.515 20.6147 2.625 13.9997 2.625C7.38467 2.625 4.73926 4.515 4.73926 4.515V14.9567C4.73926 20.461 11.6138 24.8558 13.9997 25.375Z" stroke="white" stroke-linecap="round" stroke-linejoin="round"/>
<path d="M11.6729 10.941V9.98436C11.6729 9.36707 11.9181 8.77506 12.3546 8.33857C12.7911 7.90208 13.3831 7.65686 14.0004 7.65686C14.6176 7.65686 15.2097 7.90208 15.6461 8.33857C16.0826 8.77506 16.3279 9.36707 16.3279 9.98436V10.941" stroke="white" stroke-linecap="round" stroke-linejoin="round"/>
</svg>
