<svg width="30" height="28" viewBox="0 0 30 28" fill="none" xmlns="http://www.w3.org/2000/svg">
<path d="M14.5181 2.8C18.608 2.8 20.9281 5.4922 21.2649 8.7444H21.3665C24.0016 8.7444 26.1329 10.8612 26.1329 13.4722C26.1329 13.5375 26.1315 13.6019 26.1286 13.6654C25.6893 13.2875 25.1752 12.9993 24.6172 12.8184C24.3138 11.2882 22.9679 10.1444 21.368 10.1444H21.2649C20.905 10.1444 20.5579 10.0155 20.2909 9.78268C20.024 9.54986 19.8563 9.22973 19.8203 8.8844C19.527 6.055 17.5801 4.2 14.5181 4.2C11.4489 4.2 9.5107 6.0424 9.21597 8.883C9.18032 9.22858 9.01273 9.54905 8.74577 9.78216C8.47881 10.0153 8.13153 10.1444 7.77138 10.1444H7.66975C5.84622 10.1444 4.35517 11.6256 4.35517 13.4722C4.35517 15.3202 5.84768 16.8 7.6683 16.8H16.2908C16.0585 17.0968 15.8785 17.4281 15.7508 17.794L15.6099 18.2H7.6683C5.03609 18.2 2.90332 16.0832 2.90332 13.4722C2.90332 10.948 4.89671 8.8858 7.40696 8.7514L7.77138 8.7444C8.11111 5.4712 10.4283 2.8 14.5181 2.8ZM24.5737 14.3178C25.045 14.5535 25.4399 14.9098 25.7149 15.3477C25.99 15.7855 26.1346 16.2881 26.1329 16.8C26.1329 17.4164 25.922 18.0155 25.5329 18.5045C25.1438 18.9934 24.5982 19.3449 23.9808 19.5045C23.3634 19.664 22.7087 19.6226 22.1181 19.3868C21.5276 19.1509 21.0343 18.7338 20.7146 18.2H19.1931C19.0406 18.1998 18.8918 18.246 18.768 18.3319C18.6442 18.4179 18.5517 18.5392 18.5035 18.6788L17.7137 20.9636C17.5694 21.3814 17.2925 21.7448 16.9223 22.0026C16.5521 22.2604 16.1072 22.3994 15.6506 22.4H14.5181C14.5182 23.0793 14.2621 23.7355 13.7976 24.2462C13.3332 24.757 12.692 25.0875 11.9936 25.1762C11.2951 25.2649 10.5871 25.1057 10.0013 24.7283C9.41558 24.3509 8.99206 23.7811 8.8097 23.125C8.62734 22.4688 8.69857 21.7711 9.01012 21.1618C9.32166 20.5526 9.85228 20.0733 10.5031 19.8133C11.1539 19.5533 11.8806 19.5304 12.5477 19.7487C13.2147 19.967 13.7768 20.4117 14.129 21H15.6491C15.8017 21.0002 15.9504 20.954 16.0742 20.8681C16.198 20.7821 16.2906 20.6608 16.3388 20.5212L17.1286 18.2364L17.1402 18.2C17.176 18.1067 17.2171 18.0161 17.2636 17.9284C17.4478 17.5881 17.7251 17.303 18.0656 17.1041C18.406 16.9051 18.7965 16.8 19.1945 16.8H20.3255C20.3255 16.3185 20.4542 15.8451 20.6992 15.4255C20.9443 15.006 21.2974 14.6545 21.7245 14.4049C22.1515 14.1554 22.6381 14.0163 23.1372 14.001C23.6363 13.9858 24.1311 14.0949 24.5737 14.3178ZM23.9348 15.5764C23.7158 15.4589 23.4689 15.3981 23.2182 15.3999C22.9675 15.4017 22.7216 15.466 22.5043 15.5867C22.2871 15.7074 22.106 15.8802 21.9786 16.0884C21.8512 16.2966 21.7819 16.5331 21.7774 16.7748V16.8C21.7749 17.1713 21.9255 17.5284 22.196 17.7926C22.4665 18.0569 22.8348 18.2067 23.2198 18.2091C23.6049 18.2115 23.9751 18.0663 24.2492 17.8055C24.5232 17.5446 24.6786 17.1895 24.6811 16.8182V16.8C24.6811 16.5504 24.6119 16.3054 24.4807 16.0902C24.3495 15.8751 24.161 15.6977 23.9348 15.5764ZM13.0663 22.4C13.0663 22.0287 12.9133 21.6726 12.641 21.4101C12.3688 21.1475 11.9995 21 11.6144 21C11.2294 21 10.8601 21.1475 10.5878 21.4101C10.3155 21.6726 10.1626 22.0287 10.1626 22.4C10.1626 22.7713 10.3155 23.1274 10.5878 23.39C10.8601 23.6525 11.2294 23.8 11.6144 23.8C11.9995 23.8 12.3688 23.6525 12.641 23.39C12.9133 23.1274 13.0663 22.7713 13.0663 22.4Z" fill="white"/>
</svg>
