<svg width="22" height="22" viewBox="0 0 22 22" fill="none" xmlns="http://www.w3.org/2000/svg">
<path fill-rule="evenodd" clip-rule="evenodd" d="M10.7765 21.7765C12.1917 21.7765 13.593 21.4978 14.9005 20.9562C16.208 20.4146 17.3959 19.6208 18.3966 18.6201C19.3973 17.6195 20.1911 16.4315 20.7327 15.124C21.2743 13.8165 21.553 12.4152 21.553 11C21.553 9.58482 21.2743 8.18349 20.7327 6.87602C20.1911 5.56856 19.3973 4.38057 18.3966 3.37987C17.3959 2.37918 16.208 1.58539 14.9005 1.04382C13.593 0.502253 12.1917 0.223511 10.7765 0.223511C7.91839 0.223511 5.17735 1.35889 3.15636 3.37987C1.13538 5.40086 0 8.14191 0 11C0 13.8581 1.13538 16.5992 3.15636 18.6201C5.17735 20.6411 7.91839 21.7765 10.7765 21.7765ZM14.2648 1.97701C14.6848 2.42851 15.064 2.95468 15.3965 3.53451C16.0067 4.59034 16.4827 5.85618 16.7907 7.25618C17.2752 7.37751 17.7287 7.51284 18.151 7.66218C18.9303 7.93868 19.6152 8.26534 20.1577 8.64218C19.7788 7.14149 19.0461 5.75332 18.0209 4.59375C16.9957 3.43418 15.7078 2.53693 14.2648 1.97701ZM20.2977 12.7057C19.7342 13.1245 18.9992 13.485 18.151 13.7848C17.7637 13.9217 17.3491 14.047 16.9073 14.1605C16.611 15.7938 16.0907 17.2638 15.3977 18.4655C15.0793 19.0253 14.6994 19.5477 14.2648 20.023C15.8135 19.4231 17.1818 18.4349 18.2384 17.1534C19.2949 15.872 20.004 14.3403 20.2977 12.7057ZM7.28933 20.023C6.85441 19.5478 6.47404 19.0254 6.15533 18.4655C5.4635 17.2638 4.942 15.7938 4.64567 14.1605C4.22594 14.0531 3.811 13.9278 3.402 13.7848C2.55383 13.485 1.81883 13.1245 1.25533 12.7057C1.54899 14.3403 2.25814 15.872 3.31465 17.1534C4.37115 18.4349 5.74066 19.4231 7.28933 20.023ZM1.39417 8.64101C1.93667 8.26534 2.6215 7.93868 3.40083 7.66218C3.82317 7.51362 4.27661 7.37829 4.76117 7.25618C5.06917 5.85618 5.54517 4.59034 6.15417 3.53451C6.47251 2.97472 6.85248 2.4523 7.287 1.97701C5.84461 2.53712 4.55724 3.43434 3.53247 4.59367C2.50771 5.753 1.77531 7.14078 1.3965 8.64101M14.4398 4.08518C14.917 4.91351 15.3102 5.89818 15.5937 6.99718C14.1859 6.74356 12.7598 6.60543 11.3295 6.58418V1.43918C12.4705 1.66084 13.5672 2.57084 14.4398 4.08518ZM15.8445 8.17318C14.3577 7.87237 12.8462 7.71028 11.3295 7.68901V13.758C13.0177 13.7253 14.5868 13.5445 15.932 13.2563C16.0308 12.5315 16.0806 11.7793 16.0813 11C16.0813 10.0142 15.9985 9.06568 15.8445 8.17318ZM10.2235 1.43801V6.58301C8.79359 6.60471 7.36785 6.74323 5.9605 6.99718C6.24283 5.89818 6.63717 4.91234 7.11317 4.08518C7.98583 2.57201 9.0825 1.66084 10.2235 1.43801ZM10.2235 7.68901C8.70676 7.71028 7.19527 7.87237 5.7085 8.17318C5.54944 9.10702 5.47021 10.0527 5.47167 11C5.47167 11.7782 5.523 12.533 5.621 13.2552C6.96617 13.5445 8.53533 13.7253 10.2235 13.7568V7.68901ZM3.77067 8.70401C4.01567 8.61845 4.2735 8.53679 4.54417 8.45901C4.33199 9.95316 4.30769 11.468 4.47183 12.9682C4.22683 12.8958 3.99311 12.8208 3.77067 12.743C2.884 12.4292 2.20733 12.0698 1.76167 11.6977C1.3125 11.3232 1.16083 10.9918 1.16083 10.7235C1.16083 10.4552 1.3125 10.1238 1.76167 9.74935C2.20733 9.37718 2.884 9.01784 3.77067 8.70518M7.11317 17.916C6.55433 16.9453 6.10983 15.7577 5.824 14.4253C7.15167 14.6808 8.645 14.8348 10.2235 14.864V20.5632C9.0825 20.3403 7.98583 19.4303 7.11317 17.916ZM11.3295 20.562V14.8617C12.8058 14.84 14.2775 14.6932 15.729 14.423C15.4443 15.7565 14.9987 16.943 14.4398 17.9137C13.5672 19.4268 12.4705 20.3392 11.3295 20.562ZM17.1862 11C17.1862 11.672 17.1512 12.3281 17.0812 12.9682C17.3262 12.8966 17.5599 12.8216 17.7823 12.743C18.669 12.4292 19.3457 12.0698 19.7913 11.6977C20.2405 11.3232 20.3922 10.9918 20.3922 10.7235C20.3922 10.4552 20.2405 10.1238 19.7913 9.74935C19.3457 9.37718 18.669 9.01784 17.7823 8.70518C17.5373 8.61884 17.2795 8.53679 17.0088 8.45901C17.1255 9.27568 17.1873 10.1262 17.1873 11" fill="white"/>
</svg>
