<svg width="26" height="20" viewBox="0 0 26 20" fill="none" xmlns="http://www.w3.org/2000/svg">
<path d="M20.333 0C21.1614 0 21.833 0.671573 21.833 1.5V12.5C21.833 13.3284 21.1614 14 20.333 14H13V16.5H16.333C16.8853 16.5 17.333 16.9477 17.333 17.5H25.333V18.5H17.333L17.3281 18.6025C17.2768 19.1067 16.8507 19.5 16.333 19.5H9C8.48232 19.5 8.05621 19.1067 8.00488 18.6025L8 18.5H0V17.5H8C8 16.9477 8.44772 16.5 9 16.5H12V14H5C4.17157 14 3.5 13.3284 3.5 12.5V1.5C3.5 0.671573 4.17157 3.85934e-07 5 0H20.333ZM5 1C4.72386 1 4.5 1.22386 4.5 1.5V12.5C4.5 12.7761 4.72386 13 5 13H20.333C20.6091 13 20.833 12.7761 20.833 12.5V1.5C20.833 1.22386 20.6091 1 20.333 1H5Z" fill="white"/>
</svg>
