<svg width="30" height="30" viewBox="0 0 30 30" fill="none" xmlns="http://www.w3.org/2000/svg">
<path d="M7.5 7.5H7.5125M7.5 22.5H7.5125M5 2.5H25C26.3807 2.5 27.5 3.61929 27.5 5V10C27.5 11.3807 26.3807 12.5 25 12.5H5C3.61929 12.5 2.5 11.3807 2.5 10V5C2.5 3.61929 3.61929 2.5 5 2.5ZM5 17.5H25C26.3807 17.5 27.5 18.6193 27.5 20V25C27.5 26.3807 26.3807 27.5 25 27.5H5C3.61929 27.5 2.5 26.3807 2.5 25V20C2.5 18.6193 3.61929 17.5 5 17.5Z" stroke="white" stroke-linecap="round" stroke-linejoin="round"/>
</svg>
