<svg width="18" height="24" viewBox="0 0 18 24" fill="none" xmlns="http://www.w3.org/2000/svg">
<path d="M2.33379 22.4451H15.8624C16.0266 22.4451 16.1616 22.3923 16.2672 22.2866C16.3729 22.181 16.4257 22.046 16.4257 21.8817V17.1606H1.76953V21.8817C1.76953 22.046 1.82235 22.181 1.928 22.2866C2.03364 22.3923 2.16891 22.4451 2.33379 22.4451ZM13.7812 20.7193C14.0352 20.7193 14.2517 20.6302 14.4306 20.4519C14.6102 20.2748 14.6999 20.0592 14.6999 19.8051C14.6999 19.5511 14.6111 19.3343 14.4334 19.1548C14.2551 18.9765 14.0392 18.8873 13.7858 18.8873C13.5317 18.8873 13.3149 18.9759 13.1354 19.1529C12.9559 19.33 12.8667 19.5459 12.8679 19.8006C12.8691 20.0552 12.9577 20.272 13.1336 20.4509C13.3094 20.6299 13.5253 20.7199 13.7812 20.7193ZM17.3417 16.2446H16.0575L13.838 13.9546H4.35726L2.13776 16.2446H0.853516L3.55025 13.4773C3.68338 13.3326 3.84154 13.2233 4.02475 13.1494C4.20795 13.0755 4.40092 13.0386 4.60366 13.0386H13.5916C13.7943 13.0386 13.9873 13.0755 14.1705 13.1494C14.3537 13.2233 14.5118 13.3326 14.645 13.4773L17.3417 16.2446ZM2.33379 23.3611C1.92647 23.3611 1.57808 23.2161 1.28862 22.926C0.999161 22.6359 0.854126 22.2878 0.853516 21.8817V16.2446H17.3417V21.8817C17.3417 22.2885 17.1967 22.6365 16.9066 22.926C16.6165 23.2155 16.2685 23.3605 15.8624 23.3611H2.33379Z" fill="white"/>
<path d="M14.9139 6.4641L12.2431 5.23467V1.71213C12.2418 1.63822 12.2194 1.56623 12.1784 1.50473C12.1374 1.44323 12.0796 1.39482 12.0118 1.36527L9.12133 0.0356401C9.0706 0.0121612 9.01536 0 8.95946 0C8.90356 0 8.84832 0.0121612 8.79759 0.0356401L5.9071 1.36527C5.8402 1.39623 5.78359 1.44572 5.74397 1.50788C5.70435 1.57005 5.68339 1.64227 5.68357 1.71598V5.23853L3.02431 6.4641C2.95742 6.49506 2.9008 6.54455 2.86118 6.60671C2.82156 6.66888 2.8006 6.7411 2.80078 6.81481V10.584C2.8006 10.6577 2.82156 10.7299 2.86118 10.7921C2.9008 10.8543 2.95742 10.9038 3.02431 10.9347L5.91481 12.2644C5.96554 12.2878 6.02077 12.3 6.07667 12.3C6.13258 12.3 6.18781 12.2878 6.23854 12.2644L8.96717 11.008L11.6958 12.2644C11.7465 12.2878 11.8018 12.3 11.8577 12.3C11.9136 12.3 11.9688 12.2878 12.0195 12.2644L14.91 10.9347C14.9769 10.9038 15.0335 10.8543 15.0732 10.7921C15.1128 10.7299 15.1337 10.6577 15.1336 10.584V6.81481C15.1341 6.74151 15.1137 6.66959 15.0748 6.60747C15.0359 6.54535 14.9801 6.49561 14.9139 6.4641ZM13.8309 6.81481L11.8615 7.71279L9.89213 6.81481L11.8615 5.90912L13.8309 6.81481ZM8.96717 0.806438L10.9366 1.71213L8.96717 2.61781L7.00163 1.71213L8.96717 0.806438ZM6.07667 5.90527L8.04606 6.81096L6.07667 7.71279L4.10729 6.81481L6.07667 5.90527ZM8.58177 10.3335L6.07667 11.4897L3.57158 10.3335V7.41603L5.91481 8.48359C5.96449 8.50592 6.01835 8.51747 6.07282 8.51747C6.12729 8.51747 6.18115 8.50592 6.23083 8.48359L8.57406 7.40447L8.58177 10.3335ZM6.46207 5.23467V2.3172L8.8053 3.39632C8.85603 3.4198 8.91127 3.43196 8.96717 3.43196C9.02307 3.43196 9.0783 3.4198 9.12904 3.39632L11.4723 2.3172V5.23853L8.96717 6.39472L6.46207 5.23467ZM14.3666 10.3374L11.8615 11.4936L9.35257 10.3374V7.41218L11.6996 8.48359C11.7488 8.50536 11.802 8.51661 11.8557 8.51661C11.9095 8.51661 11.9627 8.50536 12.0118 8.48359L14.355 7.40447L14.3666 10.3374Z" fill="white"/>
<rect y="12.8071" width="17.0761" height="1.60089" fill="#1B1C1D"/>
</svg>
