<svg width="28" height="28" viewBox="0 0 28 28" fill="none" xmlns="http://www.w3.org/2000/svg">
<path d="M3.54674 5.0091C3.5296 4.90449 3.54129 4.7972 3.58055 4.69874C3.61981 4.60028 3.68516 4.51438 3.76957 4.45026C4.58157 3.87276 7.3664 2.33276 14.0001 2.33276C20.6337 2.33276 23.4186 3.87276 24.2306 4.45026C24.3152 4.51424 24.3808 4.60008 24.4202 4.69855C24.4597 4.79702 24.4716 4.90438 24.4546 5.0091L22.4712 19.8771C22.3763 20.5887 22.1185 21.2688 21.7179 21.8645C21.3172 22.4603 20.7845 22.9555 20.1612 23.3118L19.7879 23.5253C18.0252 24.5324 16.0302 25.0622 14.0001 25.0622C11.9699 25.0622 9.97493 24.5324 8.21224 23.5253L7.8389 23.3118C7.21561 22.9555 6.68292 22.4603 6.28227 21.8645C5.88161 21.2688 5.62381 20.5887 5.5289 19.8771L3.54674 5.0091Z" stroke="white" stroke-width="1.3125"/>
<path d="M3.5 5.83289C6.4995 8.94439 21.5005 8.94439 24.5 5.83289" stroke="white" stroke-width="1.3125"/>
</svg>
