<svg width="23" height="25" viewBox="0 0 23 25" fill="none" xmlns="http://www.w3.org/2000/svg">
<path d="M15.9468 19.396C15.9468 18.1763 15.4622 17.0065 14.5997 16.144C13.7373 15.2815 12.5675 14.797 11.3478 14.797M11.3478 14.797C10.128 14.797 8.95825 15.2815 8.09577 16.144C7.23329 17.0065 6.74875 18.1763 6.74875 19.396M11.3478 14.797C13.2527 14.797 14.797 13.2527 14.797 11.3478C14.797 9.44278 13.2527 7.8985 11.3478 7.8985C9.44278 7.8985 7.8985 9.44278 7.8985 11.3478C7.8985 13.2527 9.44278 14.797 11.3478 14.797ZM6.74875 1V3.2995M15.9468 1V3.2995M3.2995 3.2995H19.396C20.666 3.2995 21.6955 4.32902 21.6955 5.599V21.6955C21.6955 22.9655 20.666 23.995 19.396 23.995H3.2995C2.02952 23.995 1 22.9655 1 21.6955V5.599C1 4.32902 2.02952 3.2995 3.2995 3.2995Z" stroke="white" stroke-width="1.14975" stroke-linecap="round" stroke-linejoin="round"/>
</svg>
