<svg width="25" height="16" viewBox="0 0 25 16" fill="none" xmlns="http://www.w3.org/2000/svg">
<path d="M11.3478 6.81415H13.6473C14.2571 6.81415 14.842 6.57188 15.2732 6.14064C15.7045 5.7094 15.9468 5.12452 15.9468 4.51465C15.9468 3.90479 15.7045 3.3199 15.2732 2.88866C14.842 2.45742 14.2571 2.21515 13.6473 2.21515H10.198C9.50815 2.21515 8.93328 2.4451 8.58835 2.905L2.14975 9.11365M6.74875 13.7127L8.58835 12.103C8.93328 11.6431 9.50815 11.4132 10.198 11.4132H14.797C16.0617 11.4132 17.2115 10.9533 18.0163 10.0335L23.3052 4.97458C23.7488 4.5553 24.0078 3.97694 24.025 3.36674C24.0423 2.75653 23.8164 2.16447 23.3971 1.72079C22.9778 1.27712 22.3995 1.01817 21.7893 1.00092C21.1791 0.983671 20.587 1.20953 20.1433 1.62881L15.3144 6.11284M1 7.9639L7.8985 14.8624" stroke="white" stroke-width="1.14975" stroke-linecap="round" stroke-linejoin="round"/>
</svg>
