<svg width="26" height="26" viewBox="0 0 26 26" fill="none" xmlns="http://www.w3.org/2000/svg">
<path d="M16.4389 7.48077L16.7912 6.54154C16.8506 6.38252 16.9551 6.24573 17.091 6.1491C17.227 6.05247 17.388 6.0005 17.553 6H18.2248C18.3898 6.0005 18.5508 6.05247 18.6867 6.1491C18.8227 6.24573 18.9272 6.38252 18.9866 6.54154L19.3389 7.48077L20.5349 8.19154L21.5015 8.03923C21.6625 8.01666 21.8263 8.04403 21.9722 8.11786C22.118 8.19168 22.2394 8.30863 22.3207 8.45385L22.6484 9.04615C22.7324 9.19368 22.771 9.36404 22.7593 9.53474C22.7476 9.70544 22.6861 9.86847 22.5829 10.0023L21.9849 10.7892V12.2108L22.5992 12.9977C22.7025 13.1315 22.764 13.2946 22.7757 13.4653C22.7874 13.636 22.7487 13.8063 22.6648 13.9538L22.3371 14.5462C22.2557 14.6914 22.1344 14.8083 21.9886 14.8821C21.8427 14.956 21.6789 14.9833 21.5179 14.9608L20.5513 14.8085L19.3552 15.5192L19.003 16.4585C18.9436 16.6175 18.8391 16.7543 18.7031 16.8509C18.5672 16.9475 18.4062 16.9995 18.2411 17H17.553C17.388 16.9995 17.227 16.9475 17.091 16.8509C16.9551 16.7543 16.8506 16.6175 16.7912 16.4585L16.4389 15.5192L15.2429 14.8085L14.2763 14.9608C14.1153 14.9833 13.9515 14.956 13.8056 14.8821C13.6597 14.8083 13.5384 14.6914 13.4571 14.5462L13.1294 13.9538C13.0454 13.8063 13.0067 13.636 13.0184 13.4653C13.0301 13.2946 13.0917 13.1315 13.1949 12.9977L13.7929 12.2108V10.7892L13.1785 10.0023C13.0753 9.86847 13.0137 9.70544 13.002 9.53474C12.9903 9.36404 13.029 9.19368 13.113 9.04615L13.4407 8.45385C13.522 8.30863 13.6434 8.19168 13.7892 8.11786C13.9351 8.04403 14.0989 8.01666 14.2599 8.03923L15.2265 8.19154L16.4389 7.48077ZM16.2505 11.5C16.2505 11.9488 16.4231 12.3793 16.7304 12.6966C17.0376 13.014 17.4544 13.1923 17.8889 13.1923C18.3234 13.1923 18.7401 13.014 19.0474 12.6966C19.3547 12.3793 19.5273 11.9488 19.5273 11.5C19.5273 11.0512 19.3547 10.6207 19.0474 10.3034C18.7401 9.98599 18.3234 9.80769 17.8889 9.80769C17.4544 9.80769 17.0376 9.98599 16.7304 10.3034C16.4231 10.6207 16.2505 11.0512 16.2505 11.5Z" stroke="white" stroke-width="1.22222" stroke-linecap="round" stroke-linejoin="round"/>
<path d="M20.7757 17.6338C21.286 18.2589 20.8394 19.2046 19.9467 19.2046H5.04998C4.15246 19.2046 3.70297 18.2618 4.21612 17.6338C5.45462 16.118 6.32899 15.3464 6.3314 11.1674C6.3314 7.33667 8.28367 5.97808 9.89401 5.31495C10.1077 5.22717 10.3088 5.02895 10.3739 4.80711C10.6531 3.8464 11.4445 3 12.4959 3C13.5473 3 14.3382 3.84592 14.6204 4.80614M15.5825 19.2046V19.9763C15.5825 20.7949 15.2573 21.58 14.6785 22.1588C14.0996 22.7377 13.3145 23.0629 12.4959 23.0629C11.6773 23.0629 10.8922 22.7377 10.3134 22.1588C9.73451 21.58 9.40932 20.7949 9.40932 19.9763V19.2046" stroke="white" stroke-width="1.5433" stroke-linecap="round" stroke-linejoin="round"/>
</svg>
