<svg width="26" height="26" viewBox="0 0 26 26" fill="none" xmlns="http://www.w3.org/2000/svg">
<path d="M16.5825 19.2046V19.9763C16.5825 20.7949 16.2573 21.58 15.6785 22.1588C15.0996 22.7377 14.3145 23.0629 13.4959 23.0629C12.6773 23.0629 11.8922 22.7377 11.3134 22.1588C10.7345 21.58 10.4093 20.7949 10.4093 19.9763V19.2046M21.7757 17.6338C20.5372 16.118 19.6628 15.3464 19.6628 11.1674C19.6628 7.34053 17.7086 5.97712 16.1002 5.31495C15.8866 5.22717 15.6855 5.02558 15.6204 4.80614C15.3382 3.84592 14.5473 3 13.4959 3C12.4445 3 11.6531 3.8464 11.3739 4.80711C11.3088 5.02895 11.1077 5.22717 10.894 5.31495C9.28367 5.97808 7.3314 7.33667 7.3314 11.1674C7.32899 15.3464 6.45462 16.118 5.21612 17.6338C4.70297 18.2618 5.15246 19.2046 6.04998 19.2046H20.9467C21.8394 19.2046 22.286 18.2589 21.7757 17.6338Z" stroke="white" stroke-width="1.5433" stroke-linecap="round" stroke-linejoin="round"/>
</svg>
