<svg width="28" height="25" viewBox="0 0 28 25" fill="none" xmlns="http://www.w3.org/2000/svg">
<path d="M8.0536 13.6746L13.523 23.1119C13.8126 23.6117 14.538 23.6147 14.8293 23.1119L20.2987 13.6746C20.5898 13.1723 20.227 12.541 19.6455 12.541H8.7068C8.12639 12.5411 7.76203 13.1715 8.0536 13.6746Z" fill="#9DE5FA"/>
<path d="M14.9195 22.8506L8.69522 12.1105C8.36553 11.5417 7.54014 11.5383 7.2085 12.1105L0.984204 22.8506C0.65294 23.4221 1.06585 24.1406 1.7276 24.1406H14.1762C14.8367 24.1406 15.2514 23.423 14.9195 22.8506Z" fill="#01A0FF"/>
<path d="M27.368 22.8506L21.1438 12.1105C20.8141 11.5417 19.9887 11.5383 19.6571 12.1105L13.4327 22.8506C13.1014 23.4221 13.5143 24.1406 14.1761 24.1406H26.6247C27.2852 24.1406 27.6999 23.423 27.368 22.8506Z" fill="#01A0FF"/>
<path d="M21.1439 12.1103L14.9196 1.37029C14.5899 0.801441 13.7645 0.798055 13.4329 1.37029L7.20858 12.1103C6.87729 12.6819 7.29022 13.4003 7.95195 13.4003H20.4005C21.0611 13.4003 21.4757 12.6829 21.1439 12.1103Z" fill="#01A0FF"/>
<path d="M27.3681 22.8504L14.9195 1.37029C14.5898 0.801441 13.7644 0.798055 13.4328 1.37029L0.984204 22.8504C0.65294 23.4219 1.06585 24.1403 1.72759 24.1403H26.6248C27.2853 24.1403 27.7 23.4228 27.3681 22.8504ZM14.1762 21.5677L9.44279 13.4003H18.9094L14.1762 21.5677ZM14.1762 3.51465L18.9095 11.682H9.44285L14.1762 3.51465ZM3.2186 22.422L7.95191 14.2546L12.6852 22.422H3.2186ZM15.6671 22.422L20.4004 14.2546L25.1338 22.422H15.6671Z" fill="#5129FB"/>
</svg>
