<svg width="29" height="24" viewBox="0 0 29 24" fill="none" xmlns="http://www.w3.org/2000/svg">
<path d="M28.2041 12.2936C28.2041 14.8442 26.1364 16.9119 23.5857 16.9119H4.82246C2.27184 16.9119 0.204102 14.8442 0.204102 12.2936C0.204102 10.2756 1.49855 8.56113 3.3027 7.93277C3.15449 5.66324 4.95426 3.77707 7.19098 3.77707C7.79363 3.77707 8.36402 3.91434 8.87316 4.15824C9.77004 2.10309 11.8192 0.666992 14.2041 0.666992C16.589 0.666992 18.6382 2.10309 19.535 4.15824C20.0442 3.91434 20.6146 3.77707 21.2172 3.77707C23.4589 3.77707 25.2537 5.66816 25.1061 7.93277C26.9096 8.56113 28.2041 10.2756 28.2041 12.2936Z" fill="#F97C64"/>
<path d="M28.2041 12.2936C28.2041 14.8442 26.1364 16.9119 23.5857 16.9119H14.2041V0.666992C16.589 0.666992 18.6382 2.10309 19.535 4.15824C20.0442 3.91434 20.6146 3.77707 21.2172 3.77707C23.4589 3.77707 25.2537 5.66816 25.1061 7.93277C26.9096 8.56113 28.2041 10.2756 28.2041 12.2936Z" fill="#FA566A"/>
<path d="M22.7603 17.1808L20.9191 15.6445C20.9596 15.3445 20.9795 15.0529 20.9795 14.7624C20.9795 14.4719 20.9596 14.1803 20.9191 13.8803L22.7603 12.344C22.9811 12.1597 23.038 11.8416 22.895 11.591L21.337 8.85686C21.1945 8.60586 20.8938 8.49655 20.6262 8.59877L18.3886 9.44806C17.9282 9.08892 17.4246 8.79452 16.8851 8.56877L16.4921 6.18038C16.4454 5.89471 16.2015 5.68555 15.9161 5.68555H12.8001C12.5146 5.68555 12.2708 5.89471 12.224 6.18045L11.831 8.56884C11.2916 8.79459 10.788 9.08899 10.3276 9.44813L8.08992 8.59884C7.82313 8.49623 7.52204 8.60593 7.37909 8.85693L5.8211 11.5911C5.67815 11.8417 5.73502 12.1597 5.95586 12.344L7.79702 13.8804C7.7565 14.1803 7.73666 14.472 7.73666 14.7625C7.73666 15.0529 7.75653 15.3446 7.79702 15.6445L5.95586 17.1809C5.73502 17.3652 5.67815 17.6833 5.8211 17.9339L7.37909 20.668C7.52204 20.919 7.82351 21.0291 8.08992 20.9261L10.3276 20.0768C10.7879 20.436 11.2916 20.7303 11.831 20.9561L12.224 23.3445C12.2706 23.6303 12.5153 23.8394 12.8001 23.8394H15.916C16.2013 23.8394 16.4452 23.6304 16.4921 23.3445L16.8851 20.9561C17.4246 20.7303 17.9282 20.436 18.3886 20.0768L20.6262 20.9261C20.8934 21.0287 21.1941 20.919 21.337 20.668L22.895 17.9339C23.038 17.6832 22.9811 17.3651 22.7603 17.1808Z" fill="#F7BE5A"/>
<path d="M22.895 17.9339L21.337 20.668C21.1941 20.919 20.8934 21.0287 20.6262 20.9261L18.3886 20.0768C17.9282 20.436 17.4246 20.7303 16.8851 20.9561L16.4921 23.3445C16.4452 23.6304 16.2013 23.8394 15.916 23.8394L14.3826 23.8393V5.68555H15.9161C16.2015 5.68555 16.4454 5.89471 16.4921 6.18038L16.8851 8.56877C17.4246 8.79452 17.9282 9.08892 18.3886 9.44806L20.6262 8.59877C20.8938 8.49655 21.1945 8.60586 21.337 8.85686L22.895 11.591C23.038 11.8416 22.9811 12.1597 22.7603 12.344L20.9191 13.8803C20.9596 14.1803 20.9795 14.4719 20.9795 14.7624C20.9795 15.0529 20.9596 15.3445 20.9191 15.6445L22.7603 17.1808C22.9811 17.3651 23.038 17.6832 22.895 17.9339Z" fill="#F7BE5A"/>
<ellipse cx="14.2042" cy="14.7626" rx="3.53846" ry="3.53846" fill="white"/>
</svg>
