<svg width="29" height="32" viewBox="0 0 29 32" fill="none" xmlns="http://www.w3.org/2000/svg">
<path d="M28.7812 8.02211C28.7812 7.67011 28.5782 7.34935 28.2591 7.19708L14.8294 0.787751C14.5778 0.667755 14.2851 0.667755 14.0335 0.787751L0.603686 7.19708C0.28466 7.34935 0.081727 7.67017 0.081727 8.02211L0.081543 24.6052C0.081543 24.9572 0.284537 25.278 0.603564 25.4303L14.0336 31.8397C14.1594 31.8996 14.2955 31.9297 14.4315 31.9297C14.5676 31.9297 14.7037 31.8997 14.8294 31.8397L28.2595 25.4303C28.5785 25.278 28.7815 24.9572 28.7815 24.6052L28.7812 8.02211Z" fill="#0085FF"/>
<path d="M28.7811 8.02167C28.7811 7.66967 28.5781 7.34891 28.2591 7.19664L14.8293 0.787308C14.7035 0.72728 14.5675 0.697266 14.4314 0.697266V31.9293C14.5675 31.9293 14.7036 31.8993 14.8293 31.8393L28.2594 25.4299C28.5784 25.2776 28.7814 24.9568 28.7814 24.6049L28.7811 8.02167Z" fill="#0066FF"/>
<path d="M24.8469 10.4851C24.8469 10.3466 24.8151 10.2132 24.7576 10.0927L4.10847 10.0869C4.04917 10.2089 4.01624 10.3444 4.01624 10.485L4.01611 22.1419C4.01611 22.4938 4.21911 22.8146 4.53813 22.9669L14.0337 27.4986C14.1595 27.5586 14.2955 27.5887 14.4316 27.5887C14.5677 27.5887 14.7037 27.5586 14.8295 27.4986L24.3251 22.9669C24.6441 22.8146 24.8471 22.4938 24.8471 22.1419L24.8469 10.4851Z" fill="#4AB0FF"/>
<path d="M24.7573 10.0928H14.4314V27.5888C14.5675 27.5888 14.7036 27.5588 14.8293 27.4987L24.3249 22.967C24.6439 22.8147 24.8469 22.4939 24.8469 22.142L24.8467 10.4852C24.8467 10.3467 24.8148 10.2132 24.7573 10.0928Z" fill="#01A0FF"/>
<path d="M24.3248 9.66024L14.8294 5.12857C14.5778 5.00858 14.2851 5.00858 14.0335 5.12857L4.53812 9.66024C4.34666 9.75163 4.19745 9.90402 4.1084 10.0872L14.4316 15.0171L24.7575 10.0929C24.6687 9.90725 24.5184 9.7526 24.3248 9.66024Z" fill="#A0EEFF"/>
<path d="M24.3247 9.66029L14.8293 5.12862C14.7035 5.06865 14.5674 5.03857 14.4314 5.03857V15.017L24.7574 10.0929C24.6686 9.90729 24.5183 9.75265 24.3247 9.66029Z" fill="#74E6FF"/>
</svg>
