<svg width="33" height="36" viewBox="0 0 33 36" fill="none" xmlns="http://www.w3.org/2000/svg">
<path d="M29.2687 6.72301L18.9255 0.757906C17.1789 -0.249415 15.0086 -0.249346 13.2619 0.757906L2.91871 6.72301C1.16865 7.73218 0.081543 9.61426 0.081543 11.6347V23.5556C0.081543 25.576 1.16865 27.4581 2.91864 28.4673L13.2619 34.4324C15.0088 35.4399 17.1791 35.4396 18.9255 34.4324L29.2686 28.4673C31.0187 27.4581 32.1058 25.576 32.1058 23.5556V11.6347C32.1058 9.61433 31.0187 7.73225 29.2687 6.72301ZM29.3569 23.5556C29.3569 24.5963 28.797 25.5658 27.8955 26.0856L17.5523 32.0507C16.6525 32.5697 15.5348 32.5697 14.635 32.0507L4.29177 26.0856C3.39035 25.5657 2.83041 24.5963 2.83041 23.5556V11.6347C2.83041 10.594 3.39035 9.62457 4.29184 9.10476L14.635 3.13966C15.5348 2.62067 16.6529 2.62088 17.5524 3.13966L27.8956 9.10469C28.797 9.62457 29.3569 10.594 29.3569 11.6347V23.5556Z" fill="#8729FF"/>
<path d="M29.3569 23.5556C29.3569 24.5963 28.797 25.5658 27.8955 26.0856L17.5523 32.0507C16.6525 32.5697 15.5348 32.5697 14.635 32.0507L4.29177 26.0856C3.39035 25.5657 2.83041 24.5963 2.83041 23.5556V11.6347C2.83041 10.594 3.39035 9.62457 4.29184 9.10476L14.635 3.13966C15.5348 2.62067 16.6529 2.62088 17.5524 3.13966L27.8956 9.10469C28.797 9.62457 29.3569 10.594 29.3569 11.6347V23.5556Z" fill="#8729FF"/>
<path d="M29.2382 6.72301C29.2382 6.72301 19.9243 1.51338 18.919 0.75791C17.9137 0.00244141 16.0938 0.00244141 16.0938 0.00244141V35.1879C16.5617 35.2099 17.782 35.0896 18.919 34.4324L29.2382 28.4673C30.9842 27.4581 32.0688 25.576 32.0688 23.5556V11.6347C32.0688 9.61434 30.9842 7.73226 29.2382 6.72301Z" fill="#5508B7"/>
<path d="M19.6716 13.1744L19.8336 12.9894L19.6716 13.1744L23.7522 16.7462L19.6716 20.318L19.8363 20.5061L19.6716 20.318C18.9252 20.9713 18.8339 22.1218 19.4634 22.8914L19.4634 22.8915C20.0986 23.6678 21.225 23.7629 21.9745 23.1068C21.9745 23.1068 21.9745 23.1068 21.9745 23.1068L27.6481 18.1406C28.4839 17.4091 28.4814 16.0812 27.6481 15.3517L27.4834 15.5398L27.6481 15.3517L21.9745 10.3856C21.2231 9.7278 20.097 9.82634 19.4634 10.601C18.8338 11.3706 18.9252 12.5211 19.6716 13.1744Z" fill="#BD68FF" stroke="#BD68FF" stroke-width="0.5"/>
<path d="M13.3647 13.1744L13.2028 12.9894L13.3647 13.1744L9.28417 16.7462L13.3647 20.318L13.2001 20.5061L13.3647 20.318C14.1112 20.9713 14.2024 22.1218 13.573 22.8914L13.573 22.8915C12.9378 23.6678 11.8114 23.7629 11.0619 23.1068C11.0619 23.1068 11.0619 23.1068 11.0619 23.1068L5.3883 18.1406C4.5525 17.4091 4.55501 16.0812 5.3883 15.3517L5.55296 15.5398L5.3883 15.3517L11.0619 10.3856C11.8132 9.7278 12.9394 9.82634 13.573 10.601C14.2025 11.3706 14.1112 12.5211 13.3647 13.1744Z" fill="#BD68FF" stroke="#BD68FF" stroke-width="0.5"/>
</svg>
