<svg width="35" height="18" viewBox="0 0 35 18" fill="none" xmlns="http://www.w3.org/2000/svg">
<path d="M31.6633 3.03631C30.0225 1.39544 27.8405 0.491699 25.5199 0.491699C23.1991 0.491699 21.0174 1.39544 19.3765 3.03631L17.4106 5.00372V13.356L23.5523 7.21206C24.6372 6.12711 26.4026 6.12711 27.4876 7.21206C28.0133 7.73774 28.3027 8.43643 28.3027 9.17972H34.208C34.208 6.85912 33.3042 4.67744 31.6633 3.03631Z" fill="#9671FF"/>
<path d="M11.269 11.1471C10.184 12.232 8.41859 12.232 7.33364 11.1471C6.80796 10.6214 6.51859 9.92271 6.51859 9.17942H0.613281C0.613281 11.5 1.51702 13.682 3.15789 15.3228C4.79877 16.9637 6.98071 17.8674 9.30131 17.8674C11.6222 17.8674 13.8038 16.9637 15.4447 15.3228L17.4106 13.3557V5.00342L11.269 11.1471Z" fill="#BD68FF"/>
<path d="M21.5853 9.17972L23.5522 11.1474C24.6372 12.2323 26.4026 12.2323 27.4875 11.1474C28.0132 10.6217 28.3026 9.92301 28.3026 9.17972L31.2552 6.55514L34.2079 9.17972C34.2079 11.5003 33.3042 13.6823 31.6633 15.3231C30.0224 16.964 27.8405 17.8677 25.5199 17.8677C23.199 17.8677 21.0173 16.964 19.3765 15.3231L13.2374 9.17998C13.2379 9.17972 17.4106 6.55514 17.4106 6.55514L21.5853 9.17972Z" fill="#8D33FF"/>
<path d="M21.5835 9.17972L15.4447 3.03631C13.8038 1.39544 11.6222 0.491699 9.30131 0.491699C6.98071 0.491699 4.79877 1.39544 3.15789 3.03631C1.51702 4.67744 0.613281 6.85912 0.613281 9.17972L3.56593 12.4604L6.51859 9.17972C6.51859 8.43643 6.80796 7.73774 7.33364 7.21206C8.41859 6.12711 10.184 6.12711 11.2692 7.21206L13.2364 9.17921C13.2359 9.17972 21.5835 9.17972 21.5835 9.17972Z" fill="#8D33FF"/>
</svg>
