<svg width="6" height="25" viewBox="0 0 6 25" fill="none" xmlns="http://www.w3.org/2000/svg">
<path d="M2.66669 5.33337C4.13946 5.33337 5.33338 4.13946 5.33338 2.66669C5.33338 1.19392 4.13946 0 2.66669 0C1.19392 0 0 1.19392 0 2.66669C0 4.13946 1.19392 5.33337 2.66669 5.33337Z" fill="black" fill-opacity="0.8"/>
<path d="M2.66669 14.6664C4.13946 14.6664 5.33338 13.4725 5.33338 11.9997C5.33338 10.5269 4.13946 9.33301 2.66669 9.33301C1.19392 9.33301 0 10.5269 0 11.9997C0 13.4725 1.19392 14.6664 2.66669 14.6664Z" fill="black" fill-opacity="0.8"/>
<path d="M2.66669 24.3334C4.13946 24.3334 5.33338 23.1394 5.33338 21.6667C5.33338 20.1939 4.13946 19 2.66669 19C1.19392 19 0 20.1939 0 21.6667C0 23.1394 1.19392 24.3334 2.66669 24.3334Z" fill="black" fill-opacity="0.8"/>
</svg>
