<svg width="100" height="31" viewBox="0 0 100 31" fill="none" xmlns="http://www.w3.org/2000/svg">
<path d="M25.2126 4.59022L17.7905 0.779379C15.6636 -0.312309 13.1563 -0.254057 11.0829 0.934718L3.50097 5.28493C1.34152 6.52404 0 8.83327 0 11.3129V19.7624C0 22.2931 1.38347 24.6268 3.61017 25.8515L11.3968 30.1348C12.4461 30.7116 13.6148 31 14.7835 31C16.0071 31 17.2308 30.6843 18.3148 30.0543L25.1165 26.1025C25.1917 26.0622 25.2647 26.0198 25.3341 25.9759L25.533 25.8609C27.6715 24.6167 29 22.3147 29 19.8516V10.7736C29 8.1587 27.5486 5.78978 25.2126 4.59022ZM2.53117 11.3129C2.53117 9.73079 3.38743 8.25651 4.76584 7.46543L12.3485 3.11522C13.0413 2.71752 13.8094 2.51831 14.5796 2.51831C15.2803 2.51831 15.9825 2.68372 16.6298 3.01597L19.4965 4.4881C19.4134 4.52765 19.3309 4.56864 19.2485 4.61323C18.8182 4.84552 17.5092 5.55174 10.2404 12.6707C6.77776 16.0616 3.57112 19.3345 3.40262 19.5064C3.29776 19.6114 2.92603 20.0055 2.61651 20.6247C2.56082 20.3435 2.53117 20.0551 2.53117 19.7624V11.3129V11.3129ZM14.4074 18.5693L11.6304 15.8077C11.4821 15.6603 11.4821 15.4114 11.6304 15.264L14.4074 12.5024C14.4812 12.4284 14.581 12.3917 14.6808 12.3917C14.7806 12.3917 14.8804 12.4284 14.9542 12.5024L17.7312 15.264C17.8795 15.4114 17.8795 15.6603 17.7312 15.8077L14.9542 18.5693C14.8059 18.7167 14.5557 18.7167 14.4074 18.5693ZM17.0377 27.8803C15.6853 28.6663 13.993 28.6857 12.6226 27.9321L5.19324 23.8451C4.74703 23.2388 4.59878 22.6707 4.74342 22.1133C4.86057 21.661 5.13539 21.3467 5.18673 21.2913L5.2106 21.2669C6.42845 20.0227 7.85893 18.5786 9.35087 17.0943C11.195 19.0188 15.3295 23.3042 16.9827 24.7785C17.8607 25.561 18.8702 26.0212 19.7721 26.2916L17.0377 27.8803ZM26.4688 19.8516C26.4688 21.4236 25.6205 22.8936 24.2559 23.6868L24.0085 23.8307C24.0078 23.8314 24.0071 23.8321 24.0064 23.8328L23.8422 23.9285C23.5204 24.0723 22.8254 24.2312 21.8057 24.1363C20.5603 24.0198 19.4184 23.5718 18.6721 22.9058C18.134 22.4262 17.2988 21.6113 16.3593 20.6714C16.4946 20.5765 16.624 20.47 16.7448 20.3499L19.5218 17.5884C20.6594 16.4571 20.6594 14.6161 19.5218 13.4848L16.7448 10.7232C16.6059 10.5852 16.4562 10.4643 16.2986 10.3601C18.2635 8.52691 19.8227 7.16841 20.4562 6.82609C22.3018 5.82933 24.6702 7.21444 24.6941 7.22882C25.8042 8.05874 26.4696 9.36042 26.4696 10.7743V19.8516H26.4688Z" fill="url(#paint0_linear_4769_9)"/>
<path d="M41.2091 6.38182V25H37.8364V6.38182H41.2091ZM60.7977 12.6636H57.3977C57.3008 12.1061 57.122 11.6121 56.8614 11.1818C56.6008 10.7455 56.2765 10.3758 55.8886 10.0727C55.5008 9.76969 55.0583 9.54242 54.5614 9.39091C54.0705 9.23333 53.5402 9.15454 52.9705 9.15454C51.9583 9.15454 51.0614 9.40909 50.2795 9.91818C49.4977 10.4212 48.8856 11.1606 48.4432 12.1364C48.0008 13.1061 47.7795 14.2909 47.7795 15.6909C47.7795 17.1152 48.0008 18.3152 48.4432 19.2909C48.8917 20.2606 49.5038 20.9939 50.2795 21.4909C51.0614 21.9818 51.9553 22.2273 52.9614 22.2273C53.5189 22.2273 54.0402 22.1545 54.525 22.0091C55.0159 21.8576 55.4553 21.6364 55.8432 21.3455C56.2371 21.0545 56.5674 20.697 56.8341 20.2727C57.1068 19.8485 57.2947 19.3636 57.3977 18.8182L60.7977 18.8364C60.6705 19.7212 60.3947 20.5515 59.9705 21.3273C59.5523 22.103 59.0038 22.7879 58.325 23.3818C57.6462 23.9697 56.8523 24.4303 55.9432 24.7636C55.0341 25.0909 54.025 25.2545 52.9159 25.2545C51.2795 25.2545 49.8189 24.8758 48.5341 24.1182C47.2492 23.3606 46.2371 22.2667 45.4977 20.8364C44.7583 19.4061 44.3886 17.6909 44.3886 15.6909C44.3886 13.6848 44.7614 11.9697 45.5068 10.5455C46.2523 9.11515 47.2674 8.02121 48.5523 7.26363C49.8371 6.50606 51.2917 6.12727 52.9159 6.12727C53.9523 6.12727 54.9159 6.27272 55.8068 6.56363C56.6977 6.85454 57.4917 7.28182 58.1886 7.84545C58.8856 8.40303 59.4583 9.08788 59.9068 9.9C60.3614 10.7061 60.6583 11.6273 60.7977 12.6636ZM70.1955 25H63.8864V6.38182H70.3227C72.1712 6.38182 73.7591 6.75454 75.0864 7.5C76.4197 8.23939 77.4439 9.30303 78.1591 10.6909C78.8742 12.0788 79.2318 13.7394 79.2318 15.6727C79.2318 17.6121 78.8712 19.2788 78.15 20.6727C77.4349 22.0667 76.4015 23.1364 75.05 23.8818C73.7045 24.6273 72.0864 25 70.1955 25ZM67.2591 22.0818H70.0318C71.3288 22.0818 72.4106 21.8455 73.2773 21.3727C74.1439 20.8939 74.7955 20.1818 75.2318 19.2364C75.6682 18.2848 75.8864 17.097 75.8864 15.6727C75.8864 14.2485 75.6682 13.0667 75.2318 12.1273C74.7955 11.1818 74.15 10.4758 73.2955 10.0091C72.447 9.53636 71.3924 9.3 70.1318 9.3H67.2591V22.0818ZM98.3727 12.6636H94.9727C94.8758 12.1061 94.697 11.6121 94.4364 11.1818C94.1758 10.7455 93.8515 10.3758 93.4636 10.0727C93.0758 9.76969 92.6333 9.54242 92.1364 9.39091C91.6455 9.23333 91.1152 9.15454 90.5455 9.15454C89.5333 9.15454 88.6364 9.40909 87.8545 9.91818C87.0727 10.4212 86.4606 11.1606 86.0182 12.1364C85.5758 13.1061 85.3545 14.2909 85.3545 15.6909C85.3545 17.1152 85.5758 18.3152 86.0182 19.2909C86.4667 20.2606 87.0788 20.9939 87.8545 21.4909C88.6364 21.9818 89.5303 22.2273 90.5364 22.2273C91.0939 22.2273 91.6152 22.1545 92.1 22.0091C92.5909 21.8576 93.0303 21.6364 93.4182 21.3455C93.8121 21.0545 94.1424 20.697 94.4091 20.2727C94.6818 19.8485 94.8697 19.3636 94.9727 18.8182L98.3727 18.8364C98.2455 19.7212 97.9697 20.5515 97.5455 21.3273C97.1273 22.103 96.5788 22.7879 95.9 23.3818C95.2212 23.9697 94.4273 24.4303 93.5182 24.7636C92.6091 25.0909 91.6 25.2545 90.4909 25.2545C88.8545 25.2545 87.3939 24.8758 86.1091 24.1182C84.8242 23.3606 83.8121 22.2667 83.0727 20.8364C82.3333 19.4061 81.9636 17.6909 81.9636 15.6909C81.9636 13.6848 82.3364 11.9697 83.0818 10.5455C83.8273 9.11515 84.8424 8.02121 86.1273 7.26363C87.4121 6.50606 88.8667 6.12727 90.4909 6.12727C91.5273 6.12727 92.4909 6.27272 93.3818 6.56363C94.2727 6.85454 95.0667 7.28182 95.7636 7.84545C96.4606 8.40303 97.0333 9.08788 97.4818 9.9C97.9364 10.7061 98.2333 11.6273 98.3727 12.6636Z" fill="white"/>
<defs>
<linearGradient id="paint0_linear_4769_9" x1="14.5" y1="0" x2="14.5" y2="31" gradientUnits="userSpaceOnUse">
<stop stop-color="white"/>
</linearGradient>
</defs>
</svg>
