<svg width="24" height="20" viewBox="0 0 24 20" fill="none" xmlns="http://www.w3.org/2000/svg">
<rect x="3.45068" y="0.345703" width="13.6985" height="4.56615" rx="1.17801" transform="rotate(45 3.45068 0.345703)" fill="#FFBF50"/>
<path d="M12.304 9.22561C12.764 9.68565 12.764 10.4315 12.304 10.8916L4.28367 18.9119C3.82363 19.3719 3.07775 19.3719 2.61771 18.9119L1.05491 17.3491C0.594872 16.889 0.594871 16.1432 1.05491 15.6831L9.90821 6.82984L12.304 9.22561Z" fill="#FF8F5F"/>
<rect x="13.405" y="0.345703" width="13.6985" height="4.56615" rx="1.17801" transform="rotate(45 13.405 0.345703)" fill="#FF6F53"/>
<path d="M22.2583 9.22561C22.7184 9.68565 22.7184 10.4315 22.2583 10.8916L14.238 18.9119C13.778 19.3719 13.0321 19.3719 12.5721 18.9119L11.0093 17.3491C10.5492 16.889 10.5492 16.1432 11.0093 15.6831L19.8626 6.82984L22.2583 9.22561Z" fill="url(#paint0_linear_266_576)"/>
<defs>
<linearGradient id="paint0_linear_266_576" x1="18.2482" y1="14.9017" x2="15.0194" y2="11.673" gradientUnits="userSpaceOnUse">
<stop stop-color="#FF3D54"/>
<stop offset="1" stop-color="#FF3D54"/>
</linearGradient>
</defs>
</svg>
