<svg width="29" height="32" viewBox="0 0 29 32" fill="none" xmlns="http://www.w3.org/2000/svg">
<path d="M28.3945 20.1363L25.3313 17.5113C25.3987 16.9989 25.4317 16.5005 25.4317 16.0042C25.4317 15.508 25.3987 15.0097 25.3313 14.4972L28.3945 11.8721C28.7619 11.5572 28.8566 11.0138 28.6187 10.5856L26.0266 5.91408C25.7894 5.48523 25.2892 5.29846 24.844 5.47311L21.1211 6.9242C20.3552 6.31058 19.5173 5.80758 18.6198 5.42186L17.9659 1.34107C17.8881 0.852972 17.4824 0.495605 17.0075 0.495605H11.8233C11.3483 0.495605 10.9427 0.852972 10.8649 1.34119L10.211 5.42198C9.31349 5.8077 8.47564 6.3107 7.70969 6.92432L3.98676 5.47323C3.54289 5.29791 3.04196 5.48535 2.80413 5.9142L0.212023 10.5857C-0.025809 11.0139 0.0687997 11.5574 0.436231 11.8723L3.49946 14.4973C3.43204 15.0097 3.39902 15.5081 3.39902 16.0044C3.39902 16.5006 3.43209 16.9989 3.49946 17.5114L0.436231 20.1365C0.0687997 20.4514 -0.025809 20.9948 0.212023 21.423L2.80413 26.0945C3.04196 26.5234 3.54353 26.7115 3.98676 26.5355L7.70963 25.0844C8.47558 25.698 9.31349 26.201 10.211 26.5868L10.8648 30.6675C10.9424 31.1559 11.3494 31.5131 11.8233 31.5131H17.0074C17.4821 31.5131 17.8878 31.1561 17.9658 30.6675L18.6197 26.5868C19.5173 26.201 20.3551 25.698 21.1211 25.0844L24.844 26.5355C25.2885 26.7108 25.7888 26.5234 26.0266 26.0945L28.6187 21.423C28.8566 20.9947 28.7619 20.4512 28.3945 20.1363Z" fill="url(#paint0_linear_266_565)"/>
<path d="M28.6187 21.423L26.0266 26.0945C25.7888 26.5234 25.2885 26.7108 24.844 26.5355L21.1211 25.0844C20.3551 25.698 19.5173 26.201 18.6197 26.5868L17.9658 30.6675C17.8878 31.1561 17.4821 31.5131 17.0074 31.5131L14.4562 31.513V0.495605H17.0075C17.4824 0.495605 17.8881 0.852972 17.9659 1.34107L18.6198 5.42186C19.5173 5.80758 20.3552 6.31058 21.1211 6.9242L24.844 5.47311C25.2892 5.29846 25.7894 5.48523 26.0266 5.91408L28.6187 10.5856C28.8566 11.0138 28.7619 11.5572 28.3945 11.8721L25.3313 14.4972C25.3987 15.0097 25.4317 15.508 25.4317 16.0042C25.4317 16.5005 25.3987 16.9989 25.3313 17.5113L28.3945 20.1363C28.7619 20.4512 28.8566 20.9947 28.6187 21.423Z" fill="url(#paint1_linear_266_565)"/>
<path d="M21.6662 10.3142V20.3895C21.6662 20.9505 21.2283 21.4064 20.6895 21.4064H18.8013V23.3711C18.8013 23.9317 18.3633 24.3874 17.8241 24.3874H11.0067C10.4675 24.3874 10.0295 23.9317 10.0295 23.3711V21.4064H8.1413C7.60248 21.4064 7.16455 20.9505 7.16455 20.3895V10.3142C7.16455 9.75353 7.60248 9.29785 8.1413 9.29785H20.6895C21.2283 9.29785 21.6662 9.75353 21.6662 10.3142Z" fill="#01B3FF"/>
<path d="M21.6661 10.3142V20.3895C21.6661 20.9505 21.2282 21.4064 20.6894 21.4064H18.8012V23.3711C18.8012 23.9317 18.3631 24.3874 17.824 24.3874H14.4153V9.29785H20.6894C21.2282 9.29785 21.6661 9.75353 21.6661 10.3142Z" fill="#01B3FF"/>
<path d="M11.5957 9.29785V12.4437C11.5957 12.7899 11.3253 13.0702 10.9914 13.0702C10.6579 13.0702 10.3872 12.7899 10.3872 12.4437V9.29785H11.5957Z" fill="#74E6FF"/>
<path d="M18.4436 9.29785V12.4437C18.4436 12.7899 18.1729 13.0702 17.8393 13.0702C17.5058 13.0702 17.2351 12.7899 17.2351 12.4437V9.29785H18.4436Z" fill="#74E6FF"/>
<path d="M14.0127 9.29785V12.4437C14.0127 12.7899 13.742 13.0702 13.4084 13.0702C13.075 13.0702 12.8042 12.7899 12.8042 12.4437V9.29785H14.0127Z" fill="#74E6FF"/>
<path d="M16.0266 9.29785V12.4437C16.0266 12.7899 15.7558 13.0702 15.4224 13.0702C15.0888 13.0702 14.8181 12.7899 14.8181 12.4437V9.29785H16.0266Z" fill="#74E6FF"/>
<defs>
<linearGradient id="paint0_linear_266_565" x1="14.4154" y1="0.495605" x2="14.4154" y2="31.5131" gradientUnits="userSpaceOnUse">
<stop stop-color="#0066FF"/>
<stop offset="1" stop-color="#01A0FF"/>
</linearGradient>
<linearGradient id="paint1_linear_266_565" x1="14.4154" y1="0.495605" x2="14.4154" y2="31.5131" gradientUnits="userSpaceOnUse">
<stop stop-color="#0066FF"/>
<stop offset="1" stop-color="#01A0FF"/>
</linearGradient>
</defs>
</svg>
