<svg width="146" height="31" viewBox="0 0 146 31" fill="none" xmlns="http://www.w3.org/2000/svg">
<path d="M0 30.0672H4.13762V30.0285H16.3624H20.5V25.7738V10.3794H16.3624V25.7738H4.13762V1.36719L2.50903e-06 1.36719L0 30.0672Z" fill="white"/>
<path d="M12.3376 1.40587L8.20001 1.40587V5.66058V21.0549H12.3376V5.66058H24.5624V30.0672H28.7V1.36719L24.5624 1.36719V1.40587L12.3376 1.40587Z" fill="white"/>
<path d="M38.7912 22.8302L36.6108 28.016C39.4591 29.1946 43.0145 30.5107 46.1378 30.5107C51.1862 30.5107 57.0792 28.0357 57.0792 22.1819C57.0792 12.3602 42.8181 14.8157 42.8181 9.70837C42.8181 7.31188 46.0003 6.97794 47.7682 6.97794C49.8308 6.97794 52.6594 8.03868 54.5648 8.82442L56.6077 3.6582C54.0541 2.44031 50.5969 1.37957 47.7486 1.37957C42.6216 1.37957 36.7875 3.71713 36.7875 9.68873C36.7875 19.5694 51.0879 17.2121 51.0879 22.1623C51.0879 24.3034 47.7682 24.932 46.1378 24.932C43.9574 24.932 40.8144 23.6748 38.7912 22.8302ZM86.6032 24.0481L81.8299 20.5122C77.2333 28.4285 65.2705 25.4231 65.2705 15.896C65.2705 11.0048 69.1795 6.80115 74.1296 6.80115C76.9976 6.80115 80.003 8.35298 81.5156 10.8084L86.0925 7.13508C83.1656 3.20641 79.0012 1.20278 74.1296 1.20278C65.8598 1.20278 59.2596 7.56724 59.2596 15.896C59.2596 24.2445 65.8205 30.6286 74.1296 30.6286C79.1584 30.6286 83.7942 28.2321 86.6032 24.0481ZM95.7374 24.4016V7.42974H99.7054C104.636 7.42974 108.702 10.828 108.702 15.9157C108.702 21.0426 104.655 24.4016 99.7054 24.4016H95.7374ZM89.7265 1.83137V30C93.0462 30 96.3856 29.9804 99.7054 29.9804C107.838 29.9804 114.713 24.3623 114.713 15.9157C114.713 7.48867 107.838 1.83137 99.7054 1.83137H89.7265ZM144.591 24.0481L139.817 20.5122C135.221 28.4285 123.258 25.4231 123.258 15.896C123.258 11.0048 127.167 6.80115 132.117 6.80115C134.985 6.80115 137.99 8.35298 139.503 10.8084L144.08 7.13508C141.153 3.20641 136.989 1.20278 132.117 1.20278C123.847 1.20278 117.247 7.56724 117.247 15.896C117.247 24.2445 123.808 30.6286 132.117 30.6286C137.146 30.6286 141.782 28.2321 144.591 24.0481Z" fill="white"/>
</svg>
