<svg width="107" height="31" viewBox="0 0 107 31" fill="none" xmlns="http://www.w3.org/2000/svg">
<path d="M44.9546 11.5C44.8697 10.7061 44.5122 10.0879 43.8818 9.64545C43.2576 9.20303 42.4455 8.98182 41.4455 8.98182C40.7425 8.98182 40.1394 9.08788 39.6364 9.3C39.1334 9.51212 38.7485 9.8 38.4818 10.1636C38.2152 10.5273 38.0788 10.9424 38.0728 11.4091C38.0728 11.797 38.1606 12.1333 38.3364 12.4182C38.5182 12.703 38.7637 12.9455 39.0728 13.1455C39.3818 13.3394 39.7243 13.503 40.1 13.6364C40.4758 13.7697 40.8546 13.8818 41.2364 13.9727L42.9818 14.4091C43.6849 14.5727 44.3606 14.7939 45.0091 15.0727C45.6637 15.3515 46.2485 15.703 46.7637 16.1273C47.2849 16.5515 47.697 17.0636 48 17.6636C48.3031 18.2636 48.4546 18.9667 48.4546 19.7727C48.4546 20.8636 48.1758 21.8242 47.6182 22.6545C47.0606 23.4788 46.2546 24.1242 45.2 24.5909C44.1515 25.0515 42.8818 25.2818 41.3909 25.2818C39.9425 25.2818 38.6849 25.0576 37.6182 24.6091C36.5576 24.1606 35.7273 23.5061 35.1273 22.6455C34.5334 21.7848 34.2122 20.7364 34.1637 19.5H37.4818C37.5303 20.1485 37.7303 20.6879 38.0818 21.1182C38.4334 21.5485 38.8909 21.8697 39.4546 22.0818C40.0243 22.2939 40.6606 22.4 41.3637 22.4C42.097 22.4 42.7394 22.2909 43.2909 22.0727C43.8485 21.8485 44.2849 21.5394 44.6 21.1455C44.9152 20.7455 45.0758 20.2788 45.0818 19.7455C45.0758 19.2606 44.9334 18.8606 44.6546 18.5455C44.3758 18.2242 43.9849 17.9576 43.4818 17.7455C42.9849 17.5273 42.4031 17.3333 41.7364 17.1636L39.6182 16.6182C38.0849 16.2242 36.8728 15.6273 35.9818 14.8273C35.097 14.0212 34.6546 12.9515 34.6546 11.6182C34.6546 10.5212 34.9515 9.5606 35.5455 8.73636C36.1455 7.91212 36.9606 7.27273 37.9909 6.81818C39.0212 6.35757 40.1879 6.12727 41.4909 6.12727C42.8122 6.12727 43.9697 6.35757 44.9637 6.81818C45.9637 7.27273 46.7485 7.90606 47.3182 8.71818C47.8879 9.52424 48.1819 10.4515 48.2 11.5H44.9546ZM67.3978 12.6636H63.9978C63.9008 12.1061 63.722 11.6121 63.4614 11.1818C63.2008 10.7455 62.8765 10.3758 62.4887 10.0727C62.1008 9.76969 61.6584 9.54242 61.1614 9.39091C60.6705 9.23333 60.1402 9.15454 59.5705 9.15454C58.5584 9.15454 57.6614 9.40909 56.8796 9.91818C56.0978 10.4212 55.4856 11.1606 55.0432 12.1364C54.6008 13.1061 54.3796 14.2909 54.3796 15.6909C54.3796 17.1152 54.6008 18.3152 55.0432 19.2909C55.4917 20.2606 56.1038 20.9939 56.8796 21.4909C57.6614 21.9818 58.5553 22.2273 59.5614 22.2273C60.119 22.2273 60.6402 22.1545 61.125 22.0091C61.6159 21.8576 62.0553 21.6364 62.4432 21.3455C62.8372 21.0545 63.1675 20.697 63.4341 20.2727C63.7069 19.8485 63.8947 19.3636 63.9978 18.8182L67.3978 18.8364C67.2705 19.7212 66.9947 20.5515 66.5705 21.3273C66.1523 22.103 65.6038 22.7879 64.925 23.3818C64.2462 23.9697 63.4523 24.4303 62.5432 24.7636C61.6341 25.0909 60.625 25.2545 59.5159 25.2545C57.8796 25.2545 56.419 24.8758 55.1341 24.1182C53.8493 23.3606 52.8372 22.2667 52.0978 20.8364C51.3584 19.4061 50.9887 17.6909 50.9887 15.6909C50.9887 13.6848 51.3614 11.9697 52.1069 10.5455C52.8523 9.11515 53.8675 8.02121 55.1523 7.26363C56.4372 6.50606 57.8917 6.12727 59.5159 6.12727C60.5523 6.12727 61.5159 6.27272 62.4069 6.56363C63.2978 6.85454 64.0917 7.28182 64.7887 7.84545C65.4856 8.40303 66.0584 9.08788 66.5069 9.9C66.9614 10.7061 67.2584 11.6273 67.3978 12.6636ZM76.7955 25H70.4864V6.38182H76.9228C78.7712 6.38182 80.3591 6.75454 81.6864 7.5C83.0197 8.23939 84.044 9.30303 84.7591 10.6909C85.4743 12.0788 85.8319 13.7394 85.8319 15.6727C85.8319 17.6121 85.4712 19.2788 84.75 20.6727C84.0349 22.0667 83.0015 23.1364 81.65 23.8818C80.3046 24.6273 78.6864 25 76.7955 25ZM73.8591 22.0818H76.6319C77.9288 22.0818 79.0106 21.8455 79.8773 21.3727C80.744 20.8939 81.3955 20.1818 81.8319 19.2364C82.2682 18.2848 82.4864 17.097 82.4864 15.6727C82.4864 14.2485 82.2682 13.0667 81.8319 12.1273C81.3955 11.1818 80.75 10.4758 79.8955 10.0091C79.047 9.53636 77.9925 9.3 76.7319 9.3H73.8591V22.0818ZM104.973 12.6636H101.573C101.476 12.1061 101.297 11.6121 101.036 11.1818C100.776 10.7455 100.452 10.3758 100.064 10.0727C99.6758 9.76969 99.2334 9.54242 98.7364 9.39091C98.2455 9.23333 97.7152 9.15454 97.1455 9.15454C96.1334 9.15454 95.2364 9.40909 94.4546 9.91818C93.6728 10.4212 93.0606 11.1606 92.6182 12.1364C92.1758 13.1061 91.9546 14.2909 91.9546 15.6909C91.9546 17.1152 92.1758 18.3152 92.6182 19.2909C93.0667 20.2606 93.6788 20.9939 94.4546 21.4909C95.2364 21.9818 96.1303 22.2273 97.1364 22.2273C97.694 22.2273 98.2152 22.1545 98.7 22.0091C99.1909 21.8576 99.6303 21.6364 100.018 21.3455C100.412 21.0545 100.742 20.697 101.009 20.2727C101.282 19.8485 101.47 19.3636 101.573 18.8182L104.973 18.8364C104.845 19.7212 104.57 20.5515 104.145 21.3273C103.727 22.103 103.179 22.7879 102.5 23.3818C101.821 23.9697 101.027 24.4303 100.118 24.7636C99.2091 25.0909 98.2 25.2545 97.0909 25.2545C95.4546 25.2545 93.994 24.8758 92.7091 24.1182C91.4243 23.3606 90.4122 22.2667 89.6728 20.8364C88.9334 19.4061 88.5637 17.6909 88.5637 15.6909C88.5637 13.6848 88.9364 11.9697 89.6819 10.5455C90.4273 9.11515 91.4425 8.02121 92.7273 7.26363C94.0122 6.50606 95.4667 6.12727 97.0909 6.12727C98.1273 6.12727 99.0909 6.27272 99.9819 6.56363C100.873 6.85454 101.667 7.28182 102.364 7.84545C103.061 8.40303 103.633 9.08788 104.082 9.9C104.536 10.7061 104.833 11.6273 104.973 12.6636Z" fill="white"/>
<path d="M-5.94556e-06 28L3.46002 28L3.46002 27.9677L13.6828 27.9677L17.1429 27.9677L17.1429 24.4097L17.1429 11.5364L13.6828 11.5364L13.6828 24.4097L3.46002 24.4097L3.46002 4.00001L-3.84742e-06 4.00001L-5.94556e-06 28Z" fill="white"/>
<path d="M10.3172 4.03235L6.85714 4.03235L6.85714 7.5903L6.85714 20.4636L10.3172 20.4636L10.3172 7.5903L20.54 7.5903L20.54 28L24 28L24 4.00001L20.54 4.00001L20.54 4.03235L10.3172 4.03235Z" fill="white"/>
</svg>
