<svg width="17" height="18" viewBox="0 0 17 18" fill="none" xmlns="http://www.w3.org/2000/svg">
<path d="M11.0846 4.50068L11.3702 3.73929C11.4183 3.61038 11.5031 3.4995 11.6133 3.42116C11.7235 3.34283 11.854 3.3007 11.9878 3.30029H12.5323C12.6661 3.3007 12.7966 3.34283 12.9068 3.42116C13.017 3.4995 13.1018 3.61038 13.1499 3.73929L13.4355 4.50068L14.405 5.07687L15.1886 4.9534C15.3191 4.9351 15.4519 4.95729 15.5702 5.01714C15.6884 5.07698 15.7868 5.17179 15.8527 5.28951L16.1184 5.76966C16.1864 5.88925 16.2178 6.02735 16.2083 6.16573C16.1988 6.30411 16.1489 6.43627 16.0652 6.54477L15.5805 7.18269V8.33506L16.0785 8.97298C16.1622 9.08147 16.2121 9.21363 16.2216 9.35201C16.2311 9.49039 16.1997 9.62849 16.1316 9.74808L15.866 10.2282C15.8 10.346 15.7017 10.4408 15.5835 10.5006C15.4652 10.5605 15.3324 10.5826 15.2019 10.5643L14.4183 10.4409L13.4488 11.0171L13.1632 11.7785C13.115 11.9074 13.0303 12.0182 12.9201 12.0966C12.8099 12.1749 12.6794 12.217 12.5456 12.2175H11.9878C11.854 12.217 11.7235 12.1749 11.6133 12.0966C11.5031 12.0182 11.4183 11.9074 11.3702 11.7785L11.0846 11.0171L10.1151 10.4409L9.33147 10.5643C9.20099 10.5826 9.06819 10.5605 8.94994 10.5006C8.8317 10.4408 8.73335 10.346 8.66739 10.2282L8.40176 9.74808C8.33369 9.62849 8.30233 9.49039 8.31181 9.35201C8.3213 9.21363 8.37118 9.08147 8.45488 8.97298L8.93966 8.33506V7.18269L8.4416 6.54477C8.3579 6.43627 8.30802 6.30411 8.29853 6.16573C8.28905 6.02735 8.32041 5.88925 8.38848 5.76966L8.65411 5.28951C8.72007 5.17179 8.81842 5.07698 8.93666 5.01714C9.05491 4.95729 9.18771 4.9351 9.31819 4.9534L10.1018 5.07687L11.0846 4.50068ZM10.9319 7.75887C10.9319 8.12272 11.0718 8.47166 11.3209 8.72893C11.57 8.98621 11.9078 9.13074 12.2601 9.13074C12.6123 9.13074 12.9501 8.98621 13.1992 8.72893C13.4483 8.47166 13.5882 8.12272 13.5882 7.75887C13.5882 7.39503 13.4483 7.04609 13.1992 6.78881C12.9501 6.53154 12.6123 6.387 12.2601 6.387C11.9078 6.387 11.57 6.53154 11.3209 6.78881C11.0718 7.04609 10.9319 7.39503 10.9319 7.75887Z" stroke="#020617" stroke-width="0.990795" stroke-linecap="round" stroke-linejoin="round"/>
<path d="M14.5992 12.7311C15.0129 13.2378 14.6508 14.0045 13.9272 14.0045H1.85117C1.12359 14.0045 0.759215 13.2401 1.1752 12.7311C2.17919 11.5023 2.888 10.8768 2.88995 7.48909C2.88995 4.38369 4.47256 3.28235 5.77798 2.74478C5.95118 2.67362 6.11421 2.51294 6.16699 2.3331C6.39336 1.5543 7.03492 0.868164 7.88722 0.868164C8.73951 0.868164 9.38069 1.55391 9.6094 2.33231M10.3894 14.0045V14.63C10.3894 15.2936 10.1257 15.93 9.65651 16.3993C9.18726 16.8685 8.55083 17.1321 7.88722 17.1321C7.22361 17.1321 6.58717 16.8685 6.11793 16.3993C5.64869 15.93 5.38507 15.2936 5.38507 14.63V14.0045" stroke="#020617" stroke-width="1.25108" stroke-linecap="round" stroke-linejoin="round"/>
</svg>
