<svg width="67" height="74" viewBox="0 0 67 74" fill="none" xmlns="http://www.w3.org/2000/svg">
<path d="M27.5502 68.5C28.136 69.5655 28.9972 70.4542 30.0439 71.0732C31.0905 71.6921 32.2842 72.0187 33.5002 72.0187C34.7161 72.0187 35.9098 71.6921 36.9565 71.0732C38.0031 70.4542 38.8643 69.5655 39.4502 68.5M12.5 23C12.5 17.4305 14.7125 12.089 18.6508 8.15076C22.589 4.21249 27.9305 2 33.5 2C39.0695 2 44.411 4.21249 48.3492 8.15076C52.2875 12.089 54.5 17.4305 54.5 23C54.5 47.5 65 54.5 65 54.5H2C2 54.5 12.5 47.5 12.5 23Z" stroke="#909090" stroke-width="3.5" stroke-linecap="round" stroke-linejoin="round"/>
</svg>
