<?xml version="1.0" encoding="utf-8"?>
<!-- Generator: Adobe Illustrator 23.0.0, SVG Export Plug-In . SVG Version: 6.00 Build 0)  -->
<svg version="1.1" id="Layer_1" xmlns="http://www.w3.org/2000/svg" xmlns:xlink="http://www.w3.org/1999/xlink" x="0px" y="0px"
	 viewBox="0 0 66.2 94" style="enable-background:new 0 0 66.2 94;" xml:space="preserve">
<style type="text/css">
	.st0{fill:#74E6FF;}
	.st1{fill:#0084FF;}
	.st2{fill:#0066FF;}
	.st3{fill:#003FE2;}
</style>
<path class="st0" d="M16.4,45.9c-0.9-0.2-1.8,0.1-2.4,0.8L1.5,61.2c-1.3,1.5-1.8,3.4-1.4,5.3L3,80.8c0.3,1.4,1.3,2.6,2.7,3.2
	c1.4,0.5,2.9,0.3,4.1-0.5l12.7-9.3c0.1-0.1,0.2-0.2,0.3-0.2c0.6-0.6,0.8-1.4,0.6-2.2l-5.3-24.1C17.9,46.8,17.2,46.1,16.4,45.9
	L16.4,45.9z"/>
<path class="st0" d="M49.8,45.9c-0.9,0.2-1.5,0.9-1.7,1.8l-5.3,24.1c-0.2,0.9,0.2,1.9,0.9,2.4l12.7,9.3c1.2,0.9,2.7,1.1,4.1,0.5
	c0.6-0.2,1.1-0.6,1.5-1c0.6-0.6,1-1.3,1.2-2.2L66,66.5c0.4-1.9-0.1-3.8-1.4-5.3L52.2,46.6C51.6,45.9,50.7,45.7,49.8,45.9L49.8,45.9z
	"/>
<path class="st1" d="M43.4,79.4c1.3,0,2.6-0.6,3.3-1.7c11.3-15.8,10.8-37.8,7-49.8C49.5,14.6,40.4,5.2,35.8,1.1
	c-1.6-1.4-3.9-1.4-5.5,0c-4.6,4.1-13.7,13.5-17.9,26.8c-3.8,12-4.3,33.9,7,49.8c0.8,1.1,2,1.7,3.3,1.7H43.4z"/>
<path class="st2" d="M33.1,0v79.4h10.3c1.3,0,2.6-0.6,3.3-1.7c11.3-15.8,10.8-37.8,7-49.8C49.5,14.6,40.4,5.2,35.8,1.1
	C35.1,0.4,34.1,0,33.1,0L33.1,0z"/>
<path class="st3" d="M19.4,77.7c0.8,1.1,2,1.7,3.3,1.7h20.7c1.3,0,2.6-0.6,3.3-1.7c2.5-3.4,4.4-7.2,5.8-11l-38.9,0
	C15,70.5,16.9,74.2,19.4,77.7L19.4,77.7z"/>
<path class="st3" d="M33.1,79.4h10.3c1.3,0,2.6-0.6,3.3-1.7c2.5-3.4,4.4-7.2,5.8-11H33.1L33.1,79.4z"/>
<path class="st0" d="M33.1,45.8c3.2,0,6.2-1.3,8.3-3.5c2.1-2.1,3.5-5.1,3.5-8.3c0-3.1-1.2-6.1-3.4-8.3c-2.2-2.2-5.2-3.4-8.3-3.4
	L33.1,45.8z"/>
<path class="st0" d="M41.4,42.3c-2.1,2.1-5.1,3.5-8.3,3.5c-3.1,0-6.1-1.2-8.3-3.4c-2.2-2.2-3.4-5.2-3.4-8.3
	c0-6.5,5.3-11.8,11.8-11.8c3.1,0,6.1,1.2,8.3,3.4c2.2,2.2,3.4,5.2,3.4,8.3C44.9,37.2,43.5,40.2,41.4,42.3L41.4,42.3z M23.7,34
	L23.7,34L23.7,34z"/>
<path class="st0" d="M28.1,29c-1.3,1.3-2.1,3-2.1,5c0,1.9,0.7,3.7,2.1,5c1.3,1.3,3.1,2.1,5,2.1c3.9,0,7.1-3.2,7.1-7.1
	c0-1.9-0.7-3.7-2.1-5c-1.3-1.3-3.1-2.1-5-2.1C31.1,26.9,29.4,27.7,28.1,29L28.1,29z"/>
<path class="st0" d="M33.1,26.9V41c3.9,0,7.1-3.2,7.1-7.1c0-1.9-0.7-3.7-2.1-5C36.7,27.6,35,26.9,33.1,26.9L33.1,26.9z"/>
<path class="st0" d="M41.9,80.4H24.2c0-4.9,3.9-8.9,8.8-8.9C37.9,71.5,41.9,75.5,41.9,80.4z"/>
<path class="st0" d="M41.9,80.4c0,2.6-2.4,7.3-4.7,11.2c-1.9,3.2-6.4,3.2-8.3,0c-2.3-3.9-4.7-8.7-4.7-11.2H41.9z"/>
</svg>
