<svg width="24" height="26" viewBox="0 0 24 26" fill="none" xmlns="http://www.w3.org/2000/svg">
<path d="M23.1612 6.41023C22.5898 5.82639 20.7513 3.86369 20.0929 3.36681C19.8569 3.1929 19.6085 3.06868 19.36 2.90719C18.5526 2.42273 17.683 2.12459 16.7638 1.88857C15.8321 1.65255 14.9005 1.62771 13.9688 1.6774C13.385 1.70224 12.8136 1.81404 12.2546 1.97553C11.7701 2.11217 11.3105 2.2985 10.8509 2.50968C9.5714 3.09352 8.5031 3.95065 7.63355 5.04379C6.73916 6.16178 6.16774 7.44126 5.98141 8.84496C5.8075 10.0872 5.90687 11.3294 6.3168 12.5219C6.75158 13.789 7.42237 14.9318 8.2795 15.9628C8.3913 16.0995 8.45341 16.3107 8.68943 16.3355C9.03725 16.7454 9.47202 17.1678 9.89437 17.5032C9.85711 17.5653 9.77015 17.5777 9.70804 17.5653C9.38507 17.5156 9.07451 17.5901 8.73912 17.6026C7.48448 17.6771 6.15532 17.4411 4.95037 17.1181C3.53425 16.7579 2.14297 16.0995 1.19889 14.9194C0.73927 14.3604 0.354184 13.8014 0.217541 13.0933C0.205119 13.0312 0.167853 12.9443 0.118164 12.9567C0.118164 12.9567 0.205119 11.8635 0.217541 11.7766C0.26723 11.3915 0.32934 11.0064 0.403873 10.6337C0.56536 9.86358 0.801381 9.11825 1.11193 8.39777C1.57155 7.34189 2.16781 6.36054 2.87588 5.45372C3.58394 4.54691 4.42864 3.77674 5.3603 3.09352C6.97518 1.95068 8.75154 1.20536 10.7018 0.894804C13.2111 0.497296 15.6458 0.807849 17.9563 1.87615C19.447 2.54695 20.7389 3.49103 21.8693 4.68355C21.9314 4.77051 23.273 6.28601 23.1612 6.41023Z" fill="#F7BE5A"/>
<path d="M22.006 4.85708C22.0184 4.8695 22.0184 4.8695 22.0308 4.88192C22.5401 5.40365 22.9749 6.01234 23.3476 6.65829C23.509 6.95642 23.6084 7.29181 23.6581 7.62721C23.7699 8.32285 23.7451 9.01849 23.4842 9.67686C22.9376 11.0433 21.9439 11.8632 20.5029 12.1116C19.4594 12.2855 18.5278 12.0122 17.6707 11.416C17.2483 11.1178 16.9626 10.7203 16.652 10.3352C16.18 9.71413 15.5713 9.25451 14.8757 8.89427C14.031 8.47192 13.1242 8.37254 12.1925 8.43465C11.9937 8.44707 11.6102 8.49136 11.4114 8.52863C11.3866 8.51621 11.314 8.45603 11.3016 8.41876C10.6929 7.33804 10.7267 6.09929 10.9627 4.89434C11.0621 4.37262 11.2236 3.85089 11.4347 3.36642C11.5341 3.11798 11.6583 2.88196 11.7826 2.63352C11.8695 2.48445 12.104 1.98633 12.2903 1.93664C12.8493 1.77515 13.4643 1.64431 14.0482 1.60704C14.9798 1.55735 16.2545 1.68944 17.1862 1.93788C19.1365 2.42234 20.6147 3.41611 22.006 4.85708Z" fill="#FA566A"/>
<path d="M8.70154 16.3727C8.70154 16.3727 8.65186 16.3727 8.5649 16.323C8.49037 16.2858 8.37857 16.1988 8.3413 16.1615C6.97487 14.6833 6.0929 12.7206 5.89414 10.7082C5.70781 8.90702 6.14259 7.03128 7.14878 5.52821C8.06802 4.14935 9.37234 3.18042 10.8754 2.49721C11.3226 2.29845 11.8055 2.04881 12.29 1.93701C12.2527 1.97428 12.2046 2.02517 12.1673 2.05001C12.1176 2.11212 12.0679 2.17423 12.0183 2.24877C11.2232 3.59035 10.7139 5.25492 10.9748 6.83253C11.0617 7.3791 11.2481 7.90083 11.5214 8.38529C11.5338 8.41014 11.6083 8.45983 11.6332 8.48467C10.9251 8.59647 10.2543 8.91945 9.67047 9.36664C8.65186 10.1741 8.01833 11.2051 7.79473 12.4846C7.69535 13.0809 7.70777 13.9131 7.86926 14.6212C8.08044 15.5653 8.66428 16.2982 8.6767 16.2982C8.68912 16.3355 8.70154 16.3727 8.70154 16.3727Z" fill="#F97C64"/>
<path d="M0.105601 12.9072C0.142867 12.9072 0.180134 12.9196 0.180134 12.9569C0.316777 13.7768 0.826084 14.3855 1.29812 15.019C1.90681 15.8264 2.78878 16.2612 3.70802 16.6339C4.56514 16.9817 5.44711 17.2177 6.37877 17.3419C6.91292 17.4165 7.4595 17.4661 7.99365 17.5034C8.56507 17.5407 9.13648 17.5158 9.7079 17.5283C9.75759 17.5283 9.8197 17.5407 9.84454 17.491C10.2793 17.727 10.7141 17.9879 11.1986 18.1369C13.0495 18.6587 14.6892 18.286 16.1177 17.0065C16.1674 16.9568 16.9003 16.2239 16.9748 16.2239C16.9997 16.46 16.1053 17.255 15.9811 17.3792C15.1115 18.373 14.0432 19.1183 12.8134 19.6027C11.7824 20.0003 10.7141 20.2114 9.60852 20.2363C7.39739 20.2735 5.33531 19.7145 3.45957 18.5344C2.1801 17.727 1.11179 16.696 0.490687 15.2799C0.329199 14.9196 0.192556 14.5594 0.118023 14.1743C0.105601 13.7395 0.0807568 13.3172 0.105601 12.9072Z" fill="#F97C64"/>
<path d="M16.3536 16.8819C16.689 16.4347 16.9871 15.9751 17.397 15.59C17.633 15.3664 17.8939 15.1677 18.1796 15.0186C18.5647 14.8198 18.9746 14.6956 19.4094 14.6335C19.6082 14.6087 19.7945 14.5962 19.9933 14.5962C21.8938 14.6087 23.5584 16.1614 23.7199 18.0372C23.8193 19.2421 23.3845 20.2235 22.6516 21.1303C20.7883 23.4656 18.4032 24.9687 15.5089 25.6519C14.8008 25.8258 14.0803 25.9004 13.3598 25.9376C11.2605 26.0494 9.26054 25.6395 7.35995 24.7575C5.70781 23.9874 4.29169 22.8818 3.11159 21.5029C1.4346 19.5154 0.453252 17.2297 0.179965 14.6459C0.167543 14.5093 0.155121 14.3602 0.142699 14.2236C0.130277 14.1739 0.142699 14.0994 0.130277 14.0124C0.130277 14 0.117855 13.8882 0.130277 13.8882C0.20481 14.2733 0.378719 14.882 0.540207 15.2422C1.16131 16.6583 2.21719 17.6894 3.50909 18.4968C5.38483 19.6769 7.43449 20.2359 9.65804 20.1986C11.2729 20.1614 12.9126 19.7266 14.2791 18.8446C14.925 18.4223 15.5089 17.913 16.0057 17.3291C16.1175 17.1925 16.2418 17.0434 16.3536 16.8819Z" fill="#FA566A"/>
</svg>
