<svg width="27" height="24" viewBox="0 0 27 24" fill="none" xmlns="http://www.w3.org/2000/svg">
<path d="M15.583 14.4522L11.1978 14.4522L11.1978 19.2485L8.86821 19.2485L13.3904 23.9077L17.9126 19.2485L15.583 19.2485L15.583 14.4522Z" fill="#BD68FF"/>
<path d="M26.1347 11.957C26.1347 13.2792 25.593 14.4739 24.7328 15.3342C23.8726 16.1944 22.6779 16.7361 21.3556 16.7361H5.42513C2.78073 16.7361 0.645996 14.6014 0.645996 11.957C0.645996 10.6347 1.18768 9.43992 2.04788 8.57973C2.54172 8.08588 3.16301 7.68762 3.84802 7.44861C4.11883 3.72089 7.20934 0.805664 11.0008 0.805664C13.5496 0.805664 15.7799 2.12784 17.0384 4.13508C17.4049 4.0395 17.7872 3.99176 18.1695 3.99176C20.336 3.99176 22.1521 5.40957 22.7415 7.38494C24.7169 7.97437 26.1347 9.79044 26.1347 11.957Z" fill="#8D33FF"/>
<path d="M11.1978 16.7363H15.5829V11.94H17.9126L13.3904 7.28076L8.86816 11.94H11.1978V16.7363Z" fill="#5508B7"/>
</svg>
