<svg width="34" height="33" viewBox="0 0 34 33" fill="none" xmlns="http://www.w3.org/2000/svg">
<rect x="16.9902" y="0.594727" width="22.8871" height="22.8871" rx="3.20501" transform="rotate(45 16.9902 0.594727)" fill="#97EDFF"/>
<path d="M18.8289 25.8473C18.5259 25.5442 18.157 25.3519 17.7693 25.2521L17.7693 23.1218C19.2034 22.992 20.6017 22.3809 21.6971 21.2855C22.7925 20.19 23.4036 18.7918 23.5334 17.3577H25.6637C25.7635 17.7454 25.9558 18.1142 26.2589 18.4173C27.1628 19.3212 28.6329 19.3212 29.5368 18.4173C30.4407 17.5134 30.4407 16.0433 29.5368 15.1393C28.6329 14.2354 27.1628 14.2354 26.2589 15.1393C25.9558 15.4424 25.7635 15.8113 25.6637 16.1989L23.5334 16.1989C23.4036 14.7649 22.7925 13.3666 21.6971 12.2712C20.6017 11.1757 19.2034 10.5646 17.7693 10.4348L17.7693 8.30457C18.157 8.20475 18.5259 8.01242 18.8289 7.70937C19.7328 6.80546 19.7328 5.33536 18.8289 4.43145C17.925 3.52753 16.4549 3.52753 15.551 4.43145C14.6471 5.33536 14.6471 6.80546 15.551 7.70937C15.854 8.01242 16.2229 8.20475 16.6105 8.30457L16.6105 10.4348C15.1765 10.5646 13.7782 11.1757 12.6828 12.2712C11.5874 13.3666 10.9763 14.7649 10.8465 16.1989L8.71619 16.1989C8.61638 15.8113 8.42405 15.4424 8.121 15.1393C7.21709 14.2354 5.74699 14.2354 4.84307 15.1393C3.93916 16.0433 3.93916 17.5134 4.84307 18.4173C5.74699 19.3212 7.21709 19.3212 8.121 18.4173C8.42405 18.1142 8.61638 17.7453 8.71619 17.3577H10.8465C10.9763 18.7918 11.5874 20.19 12.6828 21.2855C13.7782 22.3809 15.1765 22.992 16.6105 23.1218L16.6105 25.2521C16.2229 25.3519 15.854 25.5442 15.551 25.8473C14.6471 26.7512 14.6471 28.2213 15.551 29.1252C16.4549 30.0291 17.925 30.0291 18.8289 29.1252C19.7328 28.2213 19.7328 26.7512 18.8289 25.8473ZM17.5997 19.6465C17.2837 19.3305 17.1213 18.9219 17.0999 18.5073C16.6854 18.4859 16.2767 18.3235 15.9607 18.0075C15.2829 17.3297 15.2829 16.2269 15.9607 15.5491C16.6385 14.8713 17.7413 14.8713 18.4192 15.5491C19.097 16.2269 19.097 17.3297 18.4192 18.0075C18.1931 18.2336 18.1931 18.601 18.4192 18.827C18.6452 19.0531 19.0126 19.0531 19.2386 18.827C20.3682 17.6974 20.3682 15.8592 19.2386 14.7296C18.109 13.6 16.2708 13.6 15.1412 14.7296C14.0116 15.8592 14.0116 17.6974 15.1412 18.827L14.3218 19.6465C12.7404 18.0651 12.7404 15.4915 14.3218 13.9101C15.9031 12.3288 18.4768 12.3288 20.0581 13.9101C21.6395 15.4915 21.6395 18.0651 20.0581 19.6465C19.3803 20.3243 18.2775 20.3243 17.5997 19.6465Z" fill="#2072FA"/>
<path d="M17.5997 19.6465C17.2837 19.3305 17.1213 18.9219 17.0999 18.5073C16.6854 18.4859 16.2767 18.3235 15.9607 18.0075C15.2829 17.3297 15.2829 16.2269 15.9607 15.5491C16.6385 14.8713 17.7413 14.8713 18.4192 15.5491C19.097 16.2269 19.097 17.3297 18.4192 18.0075C18.1931 18.2336 18.1931 18.601 18.4192 18.827C18.6452 19.0531 19.0126 19.0531 19.2386 18.827C20.3682 17.6974 20.3682 15.8592 19.2386 14.7296C18.109 13.6 16.2708 13.6 15.1412 14.7296C14.0116 15.8592 14.0116 17.6974 15.1412 18.827L14.3218 19.6465C12.7404 18.0651 12.7404 15.4915 14.3218 13.9101C15.9031 12.3288 18.4768 12.3288 20.0581 13.9101C21.6395 15.4915 21.6395 18.0651 20.0581 19.6465C19.3803 20.3243 18.2775 20.3243 17.5997 19.6465Z" fill="#2072FA"/>
<rect x="27.7339" y="13.3359" width="4.86748" height="4.86748" rx="0.438185" transform="rotate(45 27.7339 13.3359)" fill="#2072FA"/>
<rect x="17.1899" y="23.8804" width="4.86748" height="4.86748" rx="0.438185" transform="rotate(45 17.1899 23.8804)" fill="#2072FA"/>
<rect x="6.646" y="13.3359" width="4.86748" height="4.86748" rx="0.438185" transform="rotate(45 6.646 13.3359)" fill="#2072FA"/>
<rect x="17.1899" y="2.79248" width="4.86748" height="4.86748" rx="0.438185" transform="rotate(45 17.1899 2.79248)" fill="#2072FA"/>
<circle cx="17.1899" cy="16.7784" r="3.82282" transform="rotate(45 17.1899 16.7784)" fill="#FFFCF5"/>
</svg>
