<svg width="14" height="16" viewBox="0 0 14 16" fill="none" xmlns="http://www.w3.org/2000/svg">
<path d="M13.7871 14.1304L10.3359 10.4174C11.2233 9.32622 11.7095 7.95329 11.7095 6.52402C11.7095 3.18466 9.08299 0.467773 5.85474 0.467773C2.62649 0.467773 0 3.18466 0 6.52402C0 9.86338 2.62649 12.5803 5.85474 12.5803C7.06667 12.5803 8.22158 12.2021 9.20899 11.4843L12.6864 15.2255C12.8318 15.3817 13.0273 15.4678 13.2368 15.4678C13.4351 15.4678 13.6232 15.3896 13.766 15.2474C14.0694 14.9454 14.0791 14.4445 13.7871 14.1304ZM5.85474 2.04766C8.24092 2.04766 10.1821 4.0557 10.1821 6.52402C10.1821 8.99233 8.24092 11.0004 5.85474 11.0004C3.46855 11.0004 1.52732 8.99233 1.52732 6.52402C1.52732 4.0557 3.46855 2.04766 5.85474 2.04766Z" fill="#909090"/>
</svg>
