<svg width="25" height="25" viewBox="0 0 25 25" fill="none" xmlns="http://www.w3.org/2000/svg">
<path d="M24.3457 12.1973V19.0675C24.3457 22.6274 18.3068 24.2201 12.3229 24.2201C6.33894 24.2201 0.300049 22.6274 0.300049 19.0675V12.1973C0.300049 15.7572 24.3457 15.7572 24.3457 12.1973Z" fill="#F97C64"/>
<path d="M24.3458 19.0675V12.1973C24.3458 13.9772 18.3344 14.8672 12.323 14.8672V24.2201C18.3069 24.2201 24.3458 22.6274 24.3458 19.0675Z" fill="#FA566A"/>
<path d="M24.3457 5.32715V12.1973C24.3457 15.7572 18.3068 17.35 12.3229 17.35C6.33894 17.35 0.300049 15.7572 0.300049 12.1973V5.32715C0.300049 8.88705 24.3457 8.88705 24.3457 5.32715Z" fill="#F7BE5A"/>
<path d="M24.3458 12.1973V5.32715C24.3458 7.1071 18.3344 7.99713 12.323 7.99713V17.35C18.3069 17.35 24.3458 15.7572 24.3458 12.1973Z" fill="#F97C64"/>
<path d="M24.3434 5.23536C24.2415 1.73958 18.2553 0.174316 12.3229 0.174316C6.39047 0.174316 0.404245 1.73958 0.302338 5.23536C0.301193 5.26513 0.300049 5.29604 0.300049 5.32696C0.300049 8.88686 6.33894 10.4796 12.3229 10.4796C18.3068 10.4796 24.3457 8.88686 24.3457 5.32696C24.3457 5.29604 24.3446 5.26513 24.3434 5.23536Z" fill="#F97C64"/>
<path d="M24.3458 5.32696C24.3458 5.29604 24.3447 5.26513 24.3435 5.23536C24.2416 1.73958 18.2554 0.174316 12.323 0.174316V10.4796C18.3069 10.4796 24.3458 8.88686 24.3458 5.32696Z" fill="#FA566A"/>
</svg>
