<svg width="26" height="27" viewBox="0 0 26 27" fill="none" xmlns="http://www.w3.org/2000/svg">
<path d="M22.75 12.9846V5.22887C22.75 4.81748 22.5788 4.42295 22.274 4.13205C21.9693 3.84116 21.556 3.67773 21.125 3.67773H4.875C4.44402 3.67773 4.0307 3.84116 3.72595 4.13205C3.4212 4.42295 3.25 4.81748 3.25 5.22887V20.7402C3.25 21.1516 3.4212 21.5462 3.72595 21.8371C4.0307 22.1279 4.44402 22.2914 4.875 22.2914H13" stroke="black" stroke-width="1.53636" stroke-linecap="round" stroke-linejoin="round"/>
<path d="M19.5 22.2914C21.2949 22.2914 22.75 20.9025 22.75 19.1891C22.75 17.4758 21.2949 16.0869 19.5 16.0869C17.7051 16.0869 16.25 17.4758 16.25 19.1891C16.25 20.9025 17.7051 22.2914 19.5 22.2914Z" stroke="black" stroke-width="1.53636"/>
<path d="M15.2751 8.90813C15.107 8.65783 14.9425 8.41333 14.7826 8.23927C14.6127 8.05362 14.3147 7.79834 13.8586 7.81492C13.4025 7.83149 13.1281 8.10749 12.9745 8.30475C12.83 8.49124 12.6883 8.74568 12.5429 9.00759L10.7366 12.2566C10.67 12.3781 10.6115 12.4823 10.5613 12.569L10.345 12.2781L10.1851 12.0577C10.0269 11.8333 9.85809 11.6154 9.679 11.4045C9.51168 11.2043 9.30069 11.0378 9.05933 10.9155C8.81374 10.8001 8.54458 10.7324 8.26885 10.7166C8.02171 10.6951 7.72641 10.6951 7.39296 10.6951H6.0982C5.91747 10.6951 5.74414 10.7606 5.61634 10.8771C5.48854 10.9937 5.41675 11.1518 5.41675 11.3167C5.41675 11.4816 5.48854 11.6397 5.61634 11.7562C5.74414 11.8728 5.91747 11.9383 6.0982 11.9383H7.36479C7.73459 11.9383 7.96538 11.9383 8.14255 11.9541C8.3061 11.9681 8.37334 11.9905 8.41604 12.0121C8.45875 12.0328 8.5169 12.0701 8.62048 12.187C8.73224 12.3129 8.86126 12.4878 9.06569 12.7688L9.2356 13C9.40642 13.2346 9.57451 13.4642 9.73806 13.6291C9.91251 13.8056 10.2123 14.041 10.6557 14.017C11.0973 13.993 11.3645 13.7269 11.5162 13.533C11.6561 13.3514 11.7933 13.1045 11.9332 12.8533L13.7386 9.606C13.8095 9.47891 13.871 9.36979 13.9231 9.27862C13.9837 9.36592 14.0542 9.47007 14.1348 9.59108L14.729 10.4763C14.9107 10.7473 15.0725 10.9868 15.2287 11.1758C15.3977 11.3805 15.5913 11.5645 15.8575 11.7004C16.1237 11.8364 16.3963 11.8911 16.6761 11.9159C16.9342 11.9383 17.2422 11.9383 17.5902 11.9383H18.8186C18.9994 11.9383 19.1727 11.8728 19.3005 11.7562C19.4283 11.6397 19.5001 11.4816 19.5001 11.3167C19.5001 11.1518 19.4283 10.9937 19.3005 10.8771C19.1727 10.7606 18.9994 10.6951 18.8186 10.6951H17.6193C17.234 10.6951 16.9923 10.6951 16.807 10.6785C16.6362 10.6627 16.5671 10.6379 16.5235 10.6155C16.479 10.5931 16.4199 10.5525 16.3172 10.4274C16.2046 10.2923 16.0783 10.1041 15.8766 9.80409L15.2751 8.90813Z" fill="black"/>
</svg>
